<svg xmlns="http://www.w3.org/2000/svg" width="1600" height="1200"><path d="M1128.2 86.1v87.7c0 1.4 2.3 1.5 2.3 0V86.1c0-1.5-2.3-1.5-2.3 0z" fill="#e8e8e8"/><path d="M1130.2 176.2h238c1.4 0 1.5-2.3 0-2.3h-238c-1.4 0-1.4 2.3 0 2.3zM1129.8 86.8h240.6c1.4 0 1.5-2.3 0-2.3h-240.6c-1.5 0-1.5 2.3 0 2.3z" fill="#e8e8e8"/><path d="M1369.7 85.2v88.5c0 1.4 2.3 1.5 2.3 0V85.2c0-1.5-2.3-1.5-2.3 0zM1142.3 160.6V97.5c0-1.4-2.3-1.5-2.3 0v63.1c0 1.4 2.3 1.4 2.3 0z" fill="#e8e8e8"/><path d="M1141.2 98.6h216.1c1.4 0 1.5-2.3 0-2.3h-216.1c-1.5 0-1.5 2.3 0 2.3z" fill="#e8e8e8"/><path d="M1357.4 98.8v58.3c0 1.4 2.3 1.5 2.3 0V98.8c0-1.5-2.3-1.5-2.3 0zM1142 162.6h216.5c1.4 0 1.5-2.3 0-2.3H1142c-1.4 0-1.4 2.3 0 2.3zM1145.3 158.4c39.8-16.5 78.8-35.1 116.6-55.7 1.3-.7.1-2.6-1.1-1.9-37.7 20.5-76.4 39.1-116.1 55.5-1.3.5-.7 2.7.6 2.1z" fill="#e8e8e8"/><path d="M1211.9 163.4c36.1-21 73.5-39.6 112-55.9 1.3-.6.2-2.5-1.1-1.9-38.5 16.3-75.9 35-112 55.9-1.3.7-.1 2.6 1.1 1.9zM1168.1 237.3v114.4c0 1.4 2.3 1.5 2.3 0V237.3c-.1-1.5-2.3-1.5-2.3 0z" fill="#e8e8e8"/><path d="M1169.7 351.5H1388c1.4 0 1.5-2.3 0-2.3h-218.3c-1.5 0-1.5 2.3 0 2.3z" fill="#e8e8e8"/><path d="M1389.9 350.8V240.4c0-1.4-2.3-1.5-2.3 0v110.4c.1 1.4 2.3 1.4 2.3 0zM1169.2 238.4h218.7c1.4 0 1.5-2.3 0-2.3h-218.7c-1.4.1-1.4 2.3 0 2.3zM1169.7 291.9h213c1.4 0 1.5-2.3 0-2.3h-213c-1.5 0-1.5 2.3 0 2.3zM1183.2 300.6h202.1c1.4 0 1.5-2.3 0-2.3h-202.1c-1.4.1-1.4 2.3 0 2.3zM672.8 199.3v321.1c0 1.4 2.3 1.5 2.3 0V270.1v-70.8c0-1.4-2.3-1.4-2.3 0z" fill="#e8e8e8"/><path d="M674.5 522h229.9c1.4 0 1.5-2.3 0-2.3H674.5c-1.4.1-1.4 2.3 0 2.3zM674 200.4h238.5c1.4 0 1.5-2.3 0-2.3H674c-1.5.1-1.5 2.3 0 2.3z" fill="#e8e8e8"/><path d="M912.4 199.3v319.5c0 1.4 2.3 1.5 2.3 0V516c0-1.4-2.3-1.5-2.3 0v2.8h2.3V270.2v-70.9c0-1.4-2.3-1.4-2.3 0z" fill="#e8e8e8"/><path d="M903.8 522.2c3.4.6 6.8.4 10-.8 1.3-.5.8-2.7-.6-2.2-2.9 1.1-5.8 1.4-8.8.8-1.4-.3-2 1.9-.6 2.2zM674.6 320.5h238.9c1.4 0 1.5-2.3 0-2.3H674.6c-1.5 0-1.5 2.3 0 2.3z" fill="#e8e8e8"/><path d="M795.7 321v199.4c0 1.4 2.3 1.5 2.3 0V321c-.1-1.4-2.3-1.4-2.3 0zM782.3 423.3l-.3.3c.4-.1.7-.2 1.1-.3-1.9-.5-1.9-5.5-1.6-6.9.5-2.6 2.6-6.1 5.6-4.7 6.2 2.8-.3 14.8-4.2 10.9-1-1-2.6.6-1.6 1.6 3.3 3.3 8 .1 9.5-3.4 1.7-3.7 1.1-10.2-3.4-11.6-4.5-1.4-7.8 3.8-8.3 7.6-.2 1.8 1.3 11.4 4.7 8.2 1.1-1.1-.5-2.7-1.5-1.7zM675.2 312.1h235.5c1.4 0 1.5-2.3 0-2.3H675.2c-1.4 0-1.4 2.3 0 2.3z" fill="#e8e8e8"/><path d="M817.7 310.3c1-8.9 2.2-17.7 6.5-25.7.7-1.3-1.3-2.4-1.9-1.1-4.5 8.3-5.8 17.6-6.8 26.9-.3 1.3 2 1.3 2.2-.1z" fill="#e8e8e8"/><path d="M823.1 286.4c3.4-7.2 9.5-12.3 13.6-19.1 4.5-7.4 3.6-15.8 3.5-24.1 0-1.4-2.3-1.5-2.3 0 0 9.1.8 17.5-4.8 25.3-4 5.7-9 10.4-12 16.7-.5 1.4 1.4 2.5 2 1.2z" fill="#e8e8e8"/><path d="M839.1 243.7c3.7-1.5 8-3.2 11.6-.6 1.2.9 2.3-1.1 1.1-1.9-4.1-3-9.1-1.4-13.4.3-1.3.5-.7 2.7.7 2.2z" fill="#e8e8e8"/><path d="M850.9 243c.1 7 .2 14.1.4 21.1 0 1.4 2.3 1.5 2.3 0-.1-7-.2-14.1-.4-21.1-.1-1.5-2.3-1.5-2.3 0z" fill="#e8e8e8"/><path d="M851.6 262.5c2.2 7.4 7.2 13 11 19.6 4.9 8.6 5.9 18.4 6.5 28.1.1 1.4 2.3 1.4 2.3 0-.5-8.4-1.2-17-4.6-24.9-3.5-8.3-10.4-14.7-12.9-23.4-.6-1.4-2.7-.8-2.3.6zM840 248.5c3.7-1.6 7.8-1.4 11.3.5 1.3.7 2.4-1.3 1.1-1.9-4.3-2.3-9.1-2.4-13.6-.5-1.2.5-.1 2.5 1.2 1.9zM841.2 241.4c1.5-.8.2-2.3 1.1-3.1.6-.6 3-.3 3.8-.3 1.6 0 3.2.3 4.8.7l-.8-.8c.4 1.1.5 2.1.4 3.2-.2 1.4 2.1 1.4 2.3 0 .1-1.2.2-3.7-1-4.5-1.5-1-4.8-.9-6.4-.9-1.6 0-3.7 0-4.9 1.1-.6.5-1.1 3.1-.3 2.6-1.4.8-.3 2.7 1 2zM834.6 285.1c-.1 4.4-.2 8.7-.3 13.1 0 1.4 2.2 1.4 2.3 0 .1-4.4.2-8.7.3-13.1 0-1.4-2.2-1.4-2.3 0z" fill="#e8e8e8"/><path d="M836.3 285.4c7.3-.5 14.6-.3 21.8.8 1.4.2 2-1.9.6-2.2-7.5-1.2-14.9-1.5-22.4-.9-1.5.2-1.5 2.4 0 2.3zM835.6 300.4c8.3-1 16.7-1.5 25-1.7 1.4 0 1.5-2.3 0-2.3-8.4.1-16.7.7-25 1.7-1.5.2-1.5 2.5 0 2.3z" fill="#e8e8e8"/><path d="M858 286c1.8 3.7 2.5 7.7 2.2 11.9-.1 1.4 2.1 1.4 2.3 0 .3-4.5-.5-8.9-2.5-13-.7-1.4-2.7-.2-2 1.1zM690.9 311.3v-40.6h-2.3v2.4c0 1.4 2.3 1.5 2.3 0v-2.4c0-1.4-2.3-1.5-2.3 0v40.6c0 1.4 2.3 1.4 2.3 0z" fill="#e8e8e8"/><path d="M689.6 270.9v38.6c0 1.4 2.3 1.5 2.3 0v-38.6c0-1.5-2.3-1.5-2.3 0z" fill="#e8e8e8"/><path d="M690.8 289.5h9.8c1.4 0 1.5-2.3 0-2.3h-9.8c-1.5 0-1.5 2.3 0 2.3z" fill="#e8e8e8"/><path d="M700.5 283.1c-.4 4.1-1.1 10.4.7 14.3.9 2 3.2 3 4.8 1 2.3-3 1.7-9.3 1.6-12.8-.1-3.2 0-7.1-3.9-7.8-.5-.1-.9.1-1.3.5-1.5 2-2.1 4.1-2.1 6.6 0 1.4 2.3 1.5 2.3 0 0-2.1.5-3.8 1.8-5.5-.4.2-.8.3-1.3.5 3.6.6 2.8 13.2 1.5 15.5-.6 1.1-.7 1.7-1.6-.1-.5-.9-.4-3.3-.5-4.6-.1-2.6 0-5.1.2-7.7.2-1.3-2.1-1.3-2.2.1z" fill="#e8e8e8"/><path d="M707.9 290.4h8.6c1.4 0 1.5-2.3 0-2.3h-8.6c-1.4 0-1.4 2.3 0 2.3z" fill="#e8e8e8"/><path d="M718.9 294.2c-.3-2-.5-4-.3-6.1.1-1.2 1-7.3 3.3-4.9 1.1 1.1.9 4.4.9 5.8 0 1.2-.1 2.4-.4 3.6-.1.4-.2.7-.3 1.1-.3 2.1-1.5 1.9-3.7-.8-.2-1.4-2.4-1.4-2.3 0 .4 2.8 2.6 7.9 6.2 5 3.3-2.6 2.9-9.7 2.2-13.2-.6-2.7-2.4-7.7-5.6-4.3-3.4 3.6-3 9.9-2.3 14.3.4 1.5 2.6.9 2.3-.5z" fill="#e8e8e8"/><path d="M724.5 290.1h8.6c1.4 0 1.5-2.3 0-2.3h-8.6c-1.4 0-1.4 2.3 0 2.3z" fill="#e8e8e8"/><path d="M736.4 295.1c-.5-2-1-4-1.2-6-.1-1.2.5-7.8 2.4-5.4 1 1.3.9 4.8.9 6.3 0 .9-1.1 7.5-2.7 4.2-.6-1.3-2.6-.2-1.9 1.1 1.2 2.4 3.5 3.6 5.3 1.1 2.6-3.5 1.8-9.5.6-13.3-.9-3-3.6-4.1-5.5-1.1-2.5 3.9-1.1 9.5 0 13.7.3 1.4 2.4.8 2.1-.6z" fill="#e8e8e8"/><path d="M740.2 290.7h7.7c1.4 0 1.5-2.3 0-2.3h-7.7c-1.5 0-1.5 2.3 0 2.3z" fill="#e8e8e8"/><path d="M750.6 293.9c-.5-2.3-1.6-9.8 1.3-10.8 1.4-.5 1 .3 1.2 1.6.2 1 .2 2 .2 3.1 0 .7 0 1.4-.1 2.1-.1.8-.2 1.6-.4 2.4-.1.9-.7 1.4-1.8 1.4-.1-1.4-2.3-1.4-2.3 0 .2 2.9 3.5 4.2 5.3 1.7 2.3-3.2 1.8-9.2 1-12.7-.7-2.8-3.5-4.2-5.5-1.4-2.4 3.5-2 9.4-1.2 13.3.4 1.3 2.6.7 2.3-.7z" fill="#e8e8e8"/><path d="M755.5 290.1h5.8c1.4 0 1.5-2.3 0-2.3h-5.8c-1.5 0-1.5 2.3 0 2.3z" fill="#e8e8e8"/><path d="M762 271.2v38.3c0 1.4 2.3 1.5 2.3 0v-38.3c0-1.5-2.3-1.5-2.3 0z" fill="#e8e8e8"/><path d="M762.6 272.1V309c0 1.4 2.3 1.5 2.3 0v-.7c0-1.4-2.3-1.5-2.3 0v.7c0 1.4 2.3 1.5 2.3 0v-36.9c0-1.5-2.3-1.5-2.3 0zM677.7 208v100.9c0 1.4 2.3 1.5 2.3 0V208c-.1-1.5-2.3-1.5-2.3 0z" fill="#e8e8e8"/><path d="M679.4 209.1h228.8c1.4 0 1.5-2.3 0-2.3H679.4c-1.4.1-1.4 2.3 0 2.3z" fill="#e8e8e8"/><path d="M908 208v100.3c0 1.4 2.3 1.5 2.3 0V208c0-1.5-2.3-1.5-2.3 0zM695.7 223.3c0 9.3.2 18.7.5 28 0 1.4 2.3 1.5 2.3 0-.3-9.3-.5-18.7-.5-28 0-1.4-2.3-1.4-2.3 0z" fill="#e8e8e8"/><path d="M697.8 224.1c15.1 0 30.2.4 45.3 1.4 1.4.1 1.4-2.2 0-2.3-15.1-.9-30.2-1.4-45.3-1.4-1.5 0-1.5 2.3 0 2.3zM697.8 252.5c15.7 1.7 31.4 2.1 47.1 1.1 1.4-.1 1.4-2.3 0-2.3-15.7.9-31.4.6-47.1-1.1-1.4-.1-1.4 2.2 0 2.3z" fill="#e8e8e8"/><path d="M743.3 224.5c.4 9.8.2 19.5-.4 29.2-.1 1.4 2.2 1.4 2.3 0 .6-9.7.7-19.5.4-29.2-.1-1.4-2.3-1.4-2.3 0zM702.6 232.2c8-.2 15.9.2 23.9 1 1.4.2 1.4-2.1 0-2.3-7.9-.9-15.9-1.2-23.9-1-1.5.1-1.5 2.3 0 2.3zM707.4 238.5c9.3.8 18.7 1.5 28 2.3 1.4.1 1.4-2.1 0-2.3-9.3-.8-18.7-1.5-28-2.3-1.5-.1-1.5 2.1 0 2.3zM719.3 247.2c6.9-.7 13.9-.9 20.9-.7 1.4 0 1.4-2.2 0-2.3-7-.2-13.9 0-20.9.7-1.5.2-1.5 2.4 0 2.3zM640.6 641.7v-32.5c0-1.4-2.3-1.5-2.3 0v32.5c0 1.4 2.3 1.4 2.3 0z" fill="#e8e8e8"/><path d="M615.9 611h76.9c1.4 0 1.5-2.3 0-2.3h-76.9c-1.4 0-1.4 2.3 0 2.3zM584.8 643.5H652c1.4 0 1.5-2.3 0-2.3h-67.2c-1.5.1-1.5 2.3 0 2.3z" fill="#e8e8e8"/><path d="M606.5 643.8v29.8c0 1.4 2.3 1.5 2.3 0v-29.8c-.1-1.5-2.3-1.5-2.3 0zM567.7 992.8h66.7c1.4 0 1.5-2.3 0-2.3h-66.7c-1.5 0-1.5 2.3 0 2.3z" fill="#e8e8e8"/><path d="M622.1 990.8v-82.9c0-1.4-2.3-1.5-2.3 0v82.9c.1 1.4 2.3 1.4 2.3 0z" fill="#e8e8e8"/><path d="M621.5 907.9h205c1.4 0 1.5-2.3 0-2.3h-205c-1.4.1-1.4 2.3 0 2.3z" fill="#e8e8e8"/><path d="M825.4 907.9v82.3c0 1.4 2.3 1.5 2.3 0v-82.3c0-1.4-2.3-1.4-2.3 0zM657.2 953.8c-5.7 1.8-8.1 8.8-9.9 14-2.5 7-3.6 14.4-4.2 21.8-.6 7.9-.9 16.3-.2 24.2.4 4.7 2.3 9 7.3 10.3 2.8.7 5.8.2 8.6.1 4.4-.1 8.3 1.2 12.4 2.6 2.9 1 6 2 9.1 1.8 4.4-.3 7.1-3.2 11.8-.9 5.5 2.8 10.8 4.5 17.1 2.7 5.6-1.6 8.6-4.7 8.5-10.6-.2-18.3-3-46.3 17.5-55 1.3-.6.7-2.7-.6-2.2-15.1 6.3-17.7 20.9-18.8 35.6-.4 5-.6 10.1-.5 15.1.1 5.7 1.5 11.8-5.3 14.4-5 1.9-10.8 1.4-15.5-1.2-2.5-1.4-4.1-3.2-7.1-2.8-1.1.2-1.9.8-2.9 1.2-3.1 1.4-5.7 1.5-9 .8-4.1-.9-7.9-3-12.1-3.6-3-.5-5.9 0-8.9 0-7.3 0-9.3-4.5-9.5-11.2-.2-8.5-.2-17.1.7-25.6.5-4.9 1.5-9.8 2.9-14.5 1.4-4.5 3.9-13.1 9.1-14.8 1.5-.4.9-2.6-.5-2.2z" fill="#e8e8e8"/><path d="M656.7 956.9c5.4-4.5 14.2-7.1 18.7.1.4.6 1.3.8 1.8.2 6.4-7.3 17.2-7 23 1 .3.5 1 .8 1.5.4 4.8-3.1 10.2-4.8 15.9-4.5 5.9.3 15.2 2.5 16 9.6.2 1.4 2.4 1.4 2.3 0-.8-6.8-7.3-10.1-13.5-11.3-7.6-1.5-15.4.1-21.9 4.3.5.1 1 .3 1.5.4-6.6-9.1-19-9.9-26.5-1.4.6.1 1.2.2 1.8.2-5.3-8.5-15.6-6.1-22.2-.6-1.1.9.5 2.5 1.6 1.6z" fill="#e8e8e8"/><path d="M674.8 956.9c-3.1 5-5.4 10.4-6.9 16.1-.4 1.4 1.8 2 2.2.6 1.5-5.5 3.7-10.7 6.7-15.6.7-1.2-1.3-2.3-2-1.1zM665.4 1023.1v-5.9c0-1.4-2.3-1.5-2.3 0v5.9c0 1.5 2.3 1.5 2.3 0zM689.9 1025c.1-10 1.4-19.9 3.9-29.6.4-1.4-1.8-2-2.2-.6-2.6 9.9-3.9 20-4 30.2.1 1.4 2.3 1.4 2.3 0zM700.1 957.8c-2.4 5-4.2 10.2-5.5 15.6-.3 1.4 1.8 2 2.2.6 1.2-5.2 3-10.2 5.3-15.1.6-1.3-1.4-2.4-2-1.1zM718.6 997.4h209.3c1.4 0 1.5-2.3 0-2.3H718.6c-1.4.1-1.4 2.3 0 2.3zM751.4 920.6c.4 3.9.7 7.9 1.1 11.8.1.6.5 1.1 1.1 1.1 19 .2 37.9-.5 56.8-2.1.4 0 1-.3 1.1-.8.6-4 1.1-8 1.7-12.1.1-.8-.3-1.4-1.1-1.4-20.1-1.8-40.2-1.1-60.2 2.1-1.4.2-.8 2.4.6 2.2 19.7-3.2 39.7-3.8 59.6-2-.4-.5-.7-.9-1.1-1.4-.4 2.6-.7 5.2-1.1 7.8-.5 3.3-1.1 3.6-4.4 3.9-5.9.5-11.7.8-17.6 1.1-11.4.5-22.9.7-34.3.6l1.1 1.1c-.4-3.9-.7-7.9-1.1-11.8-.1-1.6-2.3-1.6-2.2-.1zM734.8 941.7h47.9c1.4 0 1.5-2.3 0-2.3h-47.9c-1.4 0-1.4 2.3 0 2.3zM754.4 950H806c1.4 0 1.5-2.3 0-2.3h-51.6c-1.5 0-1.5 2.3 0 2.3zM629.4 980.5v-57.4c0-1.4-2.3-1.5-2.3 0v57.4c.1 1.4 2.3 1.4 2.3 0zM634.1 914.6h24.1c1.4 0 1.5-2.3 0-2.3h-24.1c-1.4.1-1.4 2.3 0 2.3zM970.7 997.9h477.5c1.4 0 1.5-2.3 0-2.3H970.7c-1.5.1-1.5 2.3 0 2.3zM1273.9 490.6h149.4c1.4 0 1.5-2.3 0-2.3h-149.4c-1.5 0-1.5 2.3 0 2.3z" fill="#e8e8e8"/><path d="M1347.1 491.5c1.4 0 1.5-2.3 0-2.3-1.4 0-1.4 2.3 0 2.3zM1356.3 491.3v46c0 1.4 2.3 1.5 2.3 0v-46c0-1.4-2.3-1.4-2.3 0z" fill="#e8e8e8"/><path d="M1330.2 539.4h118.4c1.4 0 1.5-2.3 0-2.3h-118.4c-1.4.1-1.4 2.3 0 2.3zM1404.6 487.5v-40.4c0-1.4-2.3-1.5-2.3 0v40.4c.1 1.5 2.3 1.5 2.3 0zM63.4 1003.4h92.3c1.4 0 1.5-2.3 0-2.3H63.4c-1.4.1-1.4 2.3 0 2.3z" fill="#e8e8e8"/><g><circle cx="595.2" cy="138.4" r="10.5" fill="#5222d0"/><circle cx="1241.2" cy="562.4" r="11.9" fill="#5222d0"/><circle cx="1235.2" cy="516.8" r="6" fill="#5222d0"/><circle cx="104.2" cy="759.7" r="23.2" fill="#5222d0"/><circle cx="145.5" cy="821" r="10.2" fill="#5222d0"/><circle cx="986.3" cy="103.4" r="18.3" fill="#ec615b"/><circle cx="1036.9" cy="111.7" r="10" fill="#ec615b"/><circle cx="581.4" cy="876" r="13.8" fill="#ec615b"/><circle cx="588.3" cy="824.4" r="6.9" fill="#ec615b"/><path d="M648.8 805.4c-2-3.9.2-9.7 4.8-10.8 3.3-.8 6.6 1.3 9.6 2.2 4.2 1.2 8.6.7 10.6-3.6 2.5-5.3-.2-11.6 3.8-16.4 6.5-7.7 17.7-3.4 25.3-.2 1.8.7 2.6-2.2.8-2.9-7.7-3.2-16.5-6.4-24.4-2.1-7.4 4-6.3 10.6-7.5 17.8-1.4 7.9-8.2 4-13.2 2.6-2.9-.8-5.7-.8-8.3.8-4.8 2.9-6.6 9.2-4.1 14.2.9 1.6 3.5.1 2.6-1.6zM700.2 798.7c-4-8.7 4.6-18.2 13.6-13.9 4 1.9 7.3 6.2 12.2 4.5 4.5-1.5 6.8-7.1 9.8-10.3 4.8-5.2 11.1-8.5 18-10 1.9-.4 1.1-3.3-.8-2.9-7.4 1.6-14.2 5.2-19.4 10.7-2.3 2.4-3.8 5.5-6.1 7.8-4.7 4.8-9.2-1.4-13.5-3-11.7-4.5-21.4 7.8-16.5 18.5.9 1.9 3.5.4 2.7-1.4zM1225.5 723.5c-7.1-6.5 2.3-17.8 10.3-11.6 3.9 3 5.1 8 2.5 12.3-1.2 2.1-3.1 3.6-5.3 4.6-1.5.7-8.3 2.6-8.1-1.1.1-1.9-2.9-1.9-3 0-.3 7.9 11.5 4.9 15.2 2.2 5.7-4.2 7.6-11.9 3.2-17.8-3.8-5.1-11.6-7.3-16.6-2.5-4.4 4.2-4.9 11.8-.3 16 1.4 1.3 3.5-.8 2.1-2.1z" fill="#ec615b"/><path d="M1236.9 741.5c-2-5-3.6-11-1-16.2 2.3-4.5 7.7-7.7 12.5-4.8 10.6 6.4 2.4 18.9-5.7 22.6-1.8.8-.2 3.4 1.5 2.6 6-2.7 11.4-7.8 12.1-14.7.6-5.5-2.4-11.4-7.5-13.7-5.1-2.3-10.7-.1-14 4.1-4.7 6.1-3.5 14.1-.8 20.9.7 1.8 3.6 1 2.9-.8zM130.4 189.9c-3.3-2.3-5-7-2.5-10.6 2.5-3.7 6.1-3.4 9.9-3 3.7.3 7-.2 8.5-4 1.6-4.1-.6-7.8-1.7-11.6-2.6-9.4 6.8-16.6 14.9-10.9 1.6 1.1 3.1-1.5 1.5-2.6-5-3.5-12-3.5-16.4 1-2 2-3.3 4.7-3.6 7.5-.5 4.5 3 8.3 2.7 12.6.4 1.5-.3 2.5-2.1 3.2-.8 1.9-2.1 2.5-3.7 1.9-.6 0-2-.3-2.8-.4-1.6-.1-3 0-4.5.6-2.4.9-4.5 2.6-5.8 4.9-2.9 5.1-.6 11 3.9 14.1 1.8.9 3.3-1.7 1.7-2.7zM161.7 173.5c-2.5-4.9-3.8-10.9-1-16 2.6-4.7 8.5-7.2 13.5-5 1.1.5 2.1-.1 2.3-1.3.9-7.2 4.2-13.4 9.5-18.4 1.4-1.3-.7-3.4-2.1-2.1-5.9 5.5-9.3 12.5-10.4 20.5.8-.4 1.5-.9 2.3-1.3-5.9-2.7-12.9-.7-16.7 4.7-4.4 6.2-3.2 14.1.1 20.5.8 1.6 3.4.1 2.5-1.6z" fill="#ec615b"/><path d="M542.5 333c-.2-5.4 6.7-7.8 10.1-3.7 2 2.5 2.1 6 4.7 8.1 2.6 2.2 6.7 2.5 8.5-.9 2.9-5.2-2.8-12 5-14.8 8.7-3.1 14.4 6.7 17.8 13 .9 1.7 3.5.2 2.6-1.5-3.4-6.3-8-14.1-15.9-14.9-5.7-.6-11.9 2.7-12.2 8.9-.1 1.7.8 3.9.3 5.5v1.1c-1.9-.1-3.7-.2-5.6-.3-.7-.5-1.3-2.8-1.7-3.6-1.4-2.9-3.2-5.3-6.6-5.8-5.2-.7-10.3 3.5-10.2 8.8.3 2 3.3 2 3.2.1zM580.9 348c-1.4-2.4-.4-5.4 2-6.8 2.8-1.6 6.5.1 8.6 2 3.1 2.7 4.5 7 5.8 10.8.4 1.3 2.6 1.6 2.9 0 .8-4.7 2.2-9.8 5.9-13.2 4.4-4 15.3-2.1 13.3 5.5-.5 1.9 2.4 2.7 2.9.8 1.8-6.8-5-12.3-11.5-11.7-8.5.8-12.3 10.5-13.5 17.7h2.9c-2.4-6.9-6.6-16.4-15.6-15.5-5.7.6-9.3 6.8-6.3 11.8.9 1.8 3.5.3 2.6-1.4zM848.8 371.2c4.1 1.6 8.8-.3 11-4.1 2.3-4 .5-8.8-3.3-11.1-3.7-2.2-8.4-1.7-11 1.9-2.5 3.5-2.3 8.4.7 11.6 1.3 1.4 3.5-.7 2.1-2.1-4.3-4.5 1-12.3 6.7-8.7 6.1 3.8.7 12.1-5.4 9.6-1.8-.7-2.6 2.2-.8 2.9zM874.1 349.7c-2.9-3.2 3.4-8.5 5.1-3.3.5 1.7 0 4-2 4.3-2.3.3-4.6-2.1-4-4.4.5-1.9-2.4-2.7-2.9-.8-1 4.1 2.5 8.2 6.7 8.2s6.2-4.4 5.1-8.1c-1.1-3.6-5-5.8-8.5-3.6-3.3 2.1-4.3 6.9-1.7 9.8 1.4 1.4 3.5-.7 2.2-2.1zM1314.6 841.8c-4.4-5.9.6-15.8 8.4-14.4 5.5 1 9.6 5.8 15.4 6 4 .1 7.6-1.7 8.7-5.8.8-2.9-.2-5.8-.1-8.7.1-4.5 3.2-6.8 7.3-7.6 9.7-1.9 22.8 5 28.3-6.9 2.6-5.6 2.3-13.4 9.6-15 6.8-1.5 14.2 3.5 18.6 8.1 1.3 1.4 3.5-.7 2.1-2.1-6.9-7.2-22.3-14.8-29.2-3.3-1.6 2.6-2 5.6-3 8.5-1.9 6-5.7 8.4-12 8.3-6.3-.1-12.7-2.2-18.8.7-5.4 2.5-6.1 7-5.8 12.5.2 3.3.4 7.3-3.7 8.3-2.7.6-5.5-.5-7.8-1.6-2.9-1.5-5.7-3.4-8.9-4.1-10.1-2.2-17.8 10.6-11.8 18.8 1.2 1.3 3.8-.2 2.7-1.7zM1387.8 833.5c-2.5-5.1-.1-11 4.1-14.4 4.3-3.5 10.2-4 15.5-3.4 5.8.6 15.1 5 16.6-3.8.8-5 .5-9.1 5.5-12.1 5-3.1 9.1-1.4 13.9 1.1 4.1 2.2 11.2 2.8 12.1-3.3.3-1.9-2.6-2.7-2.9-.8-.4 2.9-3.9 2.9-5.9 2.3-1.4-.4-2.5-1.2-3.7-1.9-1.6-.8-3.1-1.6-4.8-2-2.9-.6-5.9-.1-8.5 1.1-3.1 1.4-5.8 3.8-7.3 6.9-.6 1.3-1 2.7-1.2 4.2-.1.6.2 2.3-.1 2.9-1.8 1.3-3.6 2.7-5.3 4-.8-.2-1.5-.4-2.3-.5-7.8-1.8-17-2.3-23.6 3-5.4 4.4-7.8 11.8-4.7 18.2.8 1.8 3.4.3 2.6-1.5zM1356.6 251.5c-10.1-9.2.7-27.4 13.5-19.5 5.7 3.5 8.4 10.8 4.1 16.4-3.8 5-10.9 7-16.5 3.8-1.7-.9-3.2 1.6-1.5 2.6 6.9 3.9 15.8 1.6 20.5-4.7 5-6.7 2.5-15.5-4.1-20-6.4-4.5-15.4-4.1-20.1 2.7-4.5 6.4-3.9 15.6 2 20.9 1.5 1.2 3.6-.9 2.1-2.2zM1377.9 209.7c-.7-4.8 4.2-9.6 9-9 1.1.1 1.3.5 1.3 1.7 0 1-.5 2.1-1.1 2.9-1.3 1.8-3.7 3.1-5.9 2.2-1.8-.8-3.3 1.8-1.5 2.6 3.4 1.5 7 .4 9.4-2.5 1.8-2.1 3.5-6.9.8-9.1-2.8-2.3-8.1-.2-10.5 1.6-3.3 2.5-5 6.3-4.4 10.4.2 1.9 3.1 1.1 2.9-.8z" fill="#5222d0"/><path d="M577.3 507.3c-.4 9.6-15.5 18.6-8.4 29 1 1.4 2.2 2.3 3.8 2.9 1 .3 2.4.1 3.3.5 3.3 1.5 3.7 3.4 2.9 6.5-2.1 7.7-4.9 15.3-7.3 22.9-.6 1.8 2.3 2.6 2.9.8 2.4-7.6 5.1-15.2 7.3-22.9 1-3.6 1.5-7.9-2.6-9.7-3.4-1.5-7.3-.2-8.7-4.6-1.1-3.6.7-7.6 2.6-10.5 3.2-4.9 6.9-8.9 7.1-14.9.2-2-2.8-1.9-2.9 0zM601.3 532.8c-1.3 4.3-2.6 8.6-3.9 13-.9 3.1-2 6-1.4 9.3.7 4 2.7 7.4 2.9 11.5.2 4.9-1.1 9.4-3.6 13.6-1 1.7 1.6 3.2 2.6 1.5 3.6-6.1 5-13.2 3.3-20.2-1.2-4.8-2.8-7.9-1.4-13.1 1.4-5 3-9.9 4.5-14.8.5-1.9-2.4-2.7-3-.8z" fill="#ec615b"/></g><g><path d="M297.6 136.5c-10.8 1.7-34.7 5.5-57.7 10.4-23.3 5-11.2 3.8-24.7 6.6-5.9 1.2-12.4 2.3-18.8 7.3-2.8 2.1-4.7 4.3-5.9 5.9.7 10.7 1.4 21.3 2.1 32 1.6 1.3 3.2 2.5 4.9 3.8.1 5.9.2 14.7.3 25.4.4 41.7.1 71.4 0 89.3-.4 51 .4 43.3.3 130.7 0 47.1-.3 82.9-.3 92.1-.4 60.4-.9 60.7-1 102.9-.3 63.4.7 56.5.3 115.4-.2 37.2-.7 59.3 0 98.4.4 20.3 1 37 1.4 48.3-2.1 1.2-5.2 3.4-8 7-7 8.9-6.4 19.6-6.3 21.2.7 9 4.9 11.3 2.8 16-2.2 5-8 4.7-10.1 10.1-1.4 3.7-.2 7.6 1 10.4l-9 12.9c-1.1 6.5-1.9 13.4-2.4 20.9-1.2 16.9-.3 32 1.4 44.8 6.8 3.7 16.3 8.5 28.2 12.9 13.2 4.9 26 8.2 41 10.8 9.9 1.7 42.5 6.9 92.5 5.2 33.1-1.1 58.2-4.7 78.2-7.6 25.8-3.8 47.5-8.2 63.6-11.8-.4 10.3-.4 19.2-.3 26.4 0 5.2.1 8.5 2.4 11.5 3.7 4.8 11 6.1 16.7 4.9 9.1-2.1 12.8-10.6 13.2-11.5.8.5 6.1 3.6 12.5 1.7 7.9-2.4 10.3-10.2 10.4-10.8l-4.2-32.7c3.2-.8 6.5-1.6 9.7-2.4 1.5-9.1 2.7-19.9 2.8-32 .1-14.5-1.5-27.2-3.5-37.5-3-3.1-6-6.3-9-9.4 2.7-4.1 2.6-6.7 2.1-8.3-.6-1.9-1.7-2.2-7-7.6-3.3-3.4-3.9-4.3-4.2-5.6-.5-1.9.1-2.9.7-6.6 0 0 .2-1.2.7-7.3.2-2.2 1.5-18.1-8.3-27.8-1.5-1.5-3.1-2.6-4.5-3.5-1-16.3-1.1-29.5-1-38.2.2-23.9 1.8-37.6 4.9-88.3.5-7.8.8-14.2 1-18.1v-83.1c0-178.6-.2-177.1 0-220 .2-57.4.5-59.6 1-178 .1-23.8.3-53.7.3-76.5 1.1 0 2.6-.1 3.8-1 3.6-2.6 2.7-9.4 2.1-13.6-.7-4.6-2.5-12.3-8.3-21.2-7.8-5.8-17.4-11.8-28.8-17-30.1-13.7-58-15.2-75.4-14.6.2-2.3.5-4.6.7-7-12.2-.1-24.7 0-37.5.3-22.1.6-43.2 2-63.3 3.8-2.3.7-4.1 2.6-4.5 4.9-.6 2.4.7 4.4 1 4.8z" fill="#fff"/><path d="M178.5 1006c-2.9-2.4-4.3-7.4-1.7-10.9 1.8-2.5 5.4-3.9 8.4-2.7 4 1.6 4.8 6.9 4 10.1-.2.8-1 3.8-3.7 4.9-3.5 1.5-6.8-1.2-7-1.4zM200.8 1009.2c-2.7-1.9-4.5-5.7-3.2-9.2 1.6-4.3 7.2-6.1 11.1-4 2.7 1.5 4.2 4.8 3.7 7.9-.4 3-2.6 5.7-5.7 6.4-3 .9-5.4-.7-5.9-1.1z" fill="#ec615b"/><path d="M457.9 943.9c-2.8-3.1-2.3-7.9 0-10.9 2.7-3.6 8.2-4.8 12-2.2 2.7 1.9 4.1 5.4 3.3 8.7-.9 3.5-3.9 5.1-4.5 5.5-2.9 1.4-7.8 2.1-10.8-1.1zM486.8 938.8c-3-2-2.7-6.6-1.3-9.3 1.2-2.3 4.2-5.1 7.3-4.2 3.1.9 4.1 4.9 4 7.3 0 .7-.1 2.8-1.6 4.5-1.9 2.2-5.7 3.4-8.4 1.7z" fill="#5222d0"/><path d="M196.4 202.1v702.2c0 1.9 3 1.9 3 0V630 356.7 202.1c0-1.9-3-1.9-3 0zM506.4 197.7v136.6c0 1.9 3 1.9 3 0V197.7c0-1.9-3-1.9-3 0zM504.9 390.2v383.5c0 1.9 3 1.9 3 0V474.1v-83.9c0-1.9-3-1.9-3 0zM502.1 901.5v-83.7c0-1.9-3-1.9-3 0v83.7c0 1.9 3 1.9 3 0z" fill="#161616"/><path d="M199.4 906.1c-9.1-7.7-15.2 17.5-15.7 22.3-.4 3.9-.4 7.8.1 11.7.6 4.5 3.3 9.4-1.4 12.6-4 2.7-7.5 4.7-7 10.4.3 3.5 3 6.2-.5 9-2 1.6-3.7 3.2-5 5.4-3.2 5.5-3.6 12.5-4.3 18.7-1.7 17.6-1 35.3 1.8 52.7.3 1.9 3.2 1.1 2.9-.8-2.5-15.2-3.2-30.7-2.2-46.1.5-6.8.7-14.3 3.3-20.7 1.3-3.3 3.4-5 6-7.4 1.1-1 2.3-2 2.7-3.6.4-1.9-.5-3.4-1.1-5.2-1.4-4.2.2-7.2 3.9-9.4 4.1-2.4 5.8-4.4 5.2-9.5-.9-6.6-2.2-12.4-1.2-19.1.4-2.6 6-22.7 10.4-19 1.4 1.3 3.6-.8 2.1-2zM501.6 903.4c4.7-3.8 10.5 15.4 11 18.1 1.2 6.8 0 12.8-1 19.5-.6 4.3.3 7.4 4.2 9.4 3.7 2 6.5 4 5.6 8.6-.4 2.1-1.9 4-1.5 6.2.3 1.6 1.3 2.6 2.5 3.6 2.4 2.1 4.7 3.5 6.2 6.5 3.2 6.1 3.3 14.1 3.8 20.8 1.2 15.7.4 31.5-2.2 47.1-.3 1.9 2.6 2.7 2.9.8 3-17.4 3.7-35.1 1.9-52.7-.6-6.2-1.1-13.2-4.5-18.7-1.4-2.3-3.2-3.8-5.3-5.4-3.8-2.9-.3-6.5-.5-10.3-.1-2.1-.9-4.1-2.3-5.7-2-2.4-5.3-2.7-7.1-5-2.3-3.1.2-8.5.6-12.2.4-3.5.4-7.1 0-10.6-.6-5.3-7-29.8-16.4-22.2-1.5 1.3.6 3.4 2.1 2.2z" fill="#161616"/><path d="M168.1 1049.7c32.5 19.3 70.4 25.5 107.5 27.8 41.8 2.6 83.8.9 125.2-4.9 23.7-3.3 47.2-8 70.3-13.9 1.9-.5 1.1-3.4-.8-2.9-40 10.3-81 16.7-122.3 19-39.4 2.2-80.1 1.8-118.9-5.8-20.9-4.1-41.2-10.9-59.6-21.8-1.6-1.1-3.1 1.5-1.4 2.5z" fill="#161616"/><path d="M446 996.2c22.2 20.5 24.6 51.9 23.8 80.3-.2 5.7-1.5 12.6 1.4 17.8 2.4 4.3 7.4 7 12.2 7.8 10.2 1.6 19.3-5.1 21.7-14.9.5-1.9-2.4-2.7-2.9-.8-1.5 6.2-6.1 11.4-12.5 12.7-7.9 1.6-16.7-3-17.2-11.6-.7-12.5.9-25-.2-37.6-1.9-20.6-8.5-41.3-24.1-55.7-1.5-1.5-3.7.7-2.2 2z" fill="#161616"/><path d="M501.7 1088.8c10.2 8.6 25.2 1.9 25.5-11.5 0-1.9-3-1.9-3 0-.2 10.7-12.1 16.3-20.3 9.4-1.5-1.3-3.7.8-2.2 2.1zM449.5 996.2c2-7.1 7-14 14.6-15.7 7.1-1.6 15 2.3 17.3 9.4.6 1.8 3.5 1 2.9-.8-2.6-8.1-11-12.9-19.3-11.8-9.4 1.3-15.9 9.4-18.4 18.1-.5 1.8 2.4 2.6 2.9.8z" fill="#161616"/><path d="M479.6 981c6.4-9.2 19.7-10.8 25.8-.5 5.2 8.8 7 20.6 9.2 30.4 5.2 22.4 8.4 45.1 9.7 68 .1 1.9 3.1 1.9 3 0-1.6-28.3-6.1-56.4-13.6-83.8-2.4-8.7-4.8-20.2-14.3-23.9-8.4-3.3-17.6 1.3-22.5 8.2-1 1.7 1.6 3.2 2.7 1.6z" fill="#161616"/><path d="M524.4 1049c2.4-.9 4.8-1.8 7.1-2.8 1.8-.7 1-3.6-.8-2.9-2.4.9-4.8 1.8-7.1 2.8-1.8.7-1 3.6.8 2.9zM178.6 972.8c13.2 6.8 27.1 12.1 41.5 15.8 1.9.5 2.7-2.4.8-2.9-14.1-3.6-27.7-8.8-40.7-15.4-1.8-1-3.3 1.6-1.6 2.5zM251.1 996.5c18.6 4.2 37.4 7.5 56.3 9.9 1.9.2 1.9-2.8 0-3-18.7-2.4-37.2-5.7-55.5-9.8-1.9-.5-2.7 2.4-.8 2.9zM197.6 955.1c10.4 3.8 21 6.8 31.8 9.2 1.9.4 2.7-2.5.8-2.9-10.8-2.4-21.4-5.4-31.8-9.2-1.9-.6-2.6 2.3-.8 2.9zM198.6 907.9C231.1 928 269.2 936 307 937.4c22.1.8 44.2-.4 66.2-2.3 20.4-1.7 41.5-2.7 61.4-7.6 23.2-5.7 45.6-15.6 67.9-24 1.8-.7 1-3.6-.8-2.9-19.3 7.2-38.4 15.1-58.1 21.2-20 6.2-40.9 7.5-61.6 9.4-40.8 3.7-82.4 6.1-122.7-2.7-20.9-4.5-41.1-12.1-59.3-23.4-1.5-.8-3 1.8-1.4 2.8zM179.4 1005.4c-1.7-2.3-2.4-4.9-1.7-7.6 1-4 5.3-7.1 8.2-2.6 1.7 2.5 2.4 6.2 1 9-2 4-9.2 4.6-8.8-1.2.1-1.9-2.9-1.9-3 0-.3 5.4 5.3 9 10.2 6.8 5.4-2.5 6.4-9.1 4.2-14.2-2.1-4.8-7.2-7.9-11.6-3.8-4.3 3.9-4.4 10.7-1.1 15.2 1.2 1.5 3.8 0 2.6-1.6zM203.3 1008.1c-4.7 0-5.3-5.9-2.7-8.8 2.5-2.8 6.9-3.2 9.3 0 1.9 2.5 2 6.3-.7 8.2-2.5 1.8-6.1 1.3-8.1-1-1.3-1.5-3.4.7-2.1 2.1 3.3 3.8 9.7 3.9 13.2.3 3.6-3.8 2.3-10.2-1.6-13.2-4.6-3.5-11.1-1.2-13.6 3.7s.5 11.7 6.4 11.7c1.8 0 1.8-3-.1-3zM447.8 995.3c3.6-13.7 18.6-19.9 30.8-12.8 1.7 1 3.2-1.6 1.5-2.6-13.9-8-31.1-1-35.2 14.6-.5 1.9 2.4 2.7 2.9.8zM459.9 944.2c-2.9-2.9-3-7.9.2-10.7 2.9-2.5 8.3-2.7 10.8.5 2.7 3.3.1 7.7-3.1 9.6-2.9 1.7-6.5 1.9-9.4.2-1.7-1-3.2 1.6-1.5 2.6 4.5 2.5 10 1.9 14-1.3 4.2-3.4 5.9-10.1 1.3-14-4.1-3.5-10.7-3.2-14.6.6-4.1 4-3.8 10.7.1 14.6 1.4 1.4 3.6-.7 2.2-2.1zM488.9 937.2c-2.4-1.3-3.8-4.4-2.6-7 1.2-2.5 4.8-3.6 7.2-2.1 2.3 1.4 3 4.8 1.7 7.1-1.8 3-5.9 3-8.8 2.2-1.9-.5-2.7 2.4-.8 2.9 4.5 1.2 10.2.6 12.5-4.1 1.9-3.9.4-9-3.5-10.9-3.8-1.9-9-.3-10.9 3.6-1.9 3.9-.1 8.9 3.7 10.9 1.7.9 3.2-1.7 1.5-2.6z" fill="#161616"/><path d="M478.6 980.9c6.1 12.8 10.5 26.2 13.5 40.1.4 1.9 3.3 1.1 2.9-.8-3-14.1-7.6-27.8-13.8-40.8-.9-1.7-3.4-.2-2.6 1.5zM419 1067.1l-.6-9c-.4.5-.7 1-1.1 1.4 15.5-2.2 30.9-5.3 46.1-9.1-.6-.5-1.3-1-1.9-1.4.4 3 .8 5.9 1.1 8.9.2 1.9 3.2 1.9 3 0-.4-3-.8-5.9-1.1-8.9-.1-1-.9-1.7-1.9-1.4-15.2 3.9-30.6 6.9-46.1 9.1-.6.1-1.1.9-1.1 1.4l.6 9c.1 2 3.1 2 3 0zM198.2 203.8c3.8-9 16.6-11.1 25-13.7 10.4-3.2 20.8-5.9 31.4-8.3 21.4-4.9 43.1-7.9 65-10 42.6-4.1 86.4-9.3 128.7-.2 21.5 4.6 42 12.9 59.7 26 1.6 1.2 3-1.5 1.5-2.6-33.6-25-76.2-31.8-117.2-31.3-23.4.3-46.7 2.6-69.9 4.9-22.5 2.1-44.8 5-66.8 9.9-12.4 2.8-24.8 6.1-36.9 9.9-8.3 2.6-19.3 5-23.1 13.9-.8 1.8 1.8 3.3 2.6 1.5z" fill="#161616"/><path d="M192.4 168.5c3.8-9 16.6-11.1 25-13.7 10.4-3.2 20.8-5.9 31.4-8.3 21.4-4.9 43.1-7.9 65-10 42.6-4.1 86.4-9.3 128.7-.2 21.5 4.6 42 12.9 59.7 26 1.6 1.2 3-1.5 1.5-2.6-33.6-25-76.2-31.8-117.2-31.3-23.4.3-46.7 2.6-69.9 4.9-22.5 2.1-44.8 5-66.8 9.9-12.4 2.8-24.8 6.1-36.9 9.9-8.3 2.6-19.3 5-23.1 13.9-.8 1.8 1.8 3.3 2.6 1.5z" fill="#161616"/><path d="M190.8 166.3c-1.3 8-1.5 16-.3 24 .4 2.7.5 13.2 5.3 12 .5-.1 1-.6 1-1 0-.2.1-.4.1-.5.3-1.9-2.6-2.7-2.9-.8.5-.1 1-.3 1.4-.4-.2-.6-.3-1.2-.5-1.8-.1-1.2-.6-2.5-.8-3.6-.7-3.2-1.1-6.5-1.3-9.8-.4-5.8-.1-11.6.8-17.3.4-1.9-2.5-2.8-2.8-.8zM501.5 162c5.6 3.1 8.5 8.7 9.8 14.8.6 3 .8 6.2.9 9.3 0 1.3.1 2.7-.1 4.1-.2 1.9-1.7 4.4-1.1 6-.7-1.8-3.6-1-2.9.8.7 2 2.6 2.7 4.4 1.2 3.1-2.7 2.8-9.2 2.7-12.8-.4-10-2.8-20.7-12.2-25.9-1.7-1-3.2 1.6-1.5 2.5zM204.9 179.3c-4.6-1.9 1.3-13.3 6-7.8 3.6 4.2.1 12.5-5.7 9.2-1.7-1-3.2 1.6-1.5 2.6 3.7 2.1 8.5.8 10.7-2.8 2.3-3.9 1.1-9.8-2.7-12.4-8-5.4-16.4 10.5-7.5 14.1 1.7.8 2.5-2.1.7-2.9zM224.1 178.4c3.9 1.9 9 .8 11.3-3.1 2.1-3.6.9-8.8-2.6-11.2-3.5-2.4-8.7-1.5-11.3 1.9-2.7 3.6-1.9 9 1.7 11.7 1.5 1.2 3.6-.9 2.1-2.1-2.1-1.6-3.1-4.6-1.9-7.1 1.3-2.5 4.9-3.5 7.4-2.2 2.4 1.3 3.4 4.6 2.2 7-1.3 2.7-4.8 3.7-7.4 2.4-1.7-.7-3.2 1.9-1.5 2.7zM299.2 133.8c-.7-3.3.4-5 3.2-5.3 1.2-.2 2.3-.4 3.5-.5 1.9-.2 3.9-.4 5.8-.6 4.2-.4 8.5-.7 12.7-1.1 8.1-.6 16.3-1.1 24.4-1.5 8.2-.4 16.3-.7 24.5-1 3.9-.1 7.8-.3 11.7-.4 2-.1 3.9-.1 5.9-.2 1 0 13.2-.6 8.8 4.7-1.2 1.5.9 3.6 2.1 2.1 1.8-2.3 2-5.1 0-7.4-3-3.5-8.8-2.5-12.9-2.4-14 .5-28.1 1-42.1 1.7s-28.1 1.5-42 3.1c-3.5.4-7.7 1.1-9.2 4.8-1 2.6-.2 4.9 1.9 6.4 1.7 1.3 3.2-1.3 1.7-2.4z" fill="#161616"/><path d="M254.7 890.2c-5.9-7.1 3.9-17.8 11.1-10.7 3.7 3.6 2.4 9.8-2.1 12.2-4.8 2.6-10.3-1.2-11.1-6.2-.3-1.4-2.4-.8-2.2.6 1.1 6.1 7.7 10.4 13.6 7.9 5.7-2.4 8.2-9.9 4.4-14.9-3.5-4.6-10.5-5.8-14.7-1.5-3.7 3.9-4.1 10.1-.6 14.2.9 1.1 2.5-.5 1.6-1.6zM247.4 833.1c-.8-2.9-.6-5.8.7-8.5-.3.2-.6.4-1 .6 3.6-.3 7.7 2.7 5.9 6.6-.8 1.6-2.5 2.8-4.3 2.2-1.9-.6-2.9-2.7-2.3-4.5.5-1.4-1.7-2-2.2-.6-2 5.9 6.1 10 9.9 5.2 4.2-5.3-1-11.7-7-11.2-.4 0-.8.2-1 .6-1.5 3.3-1.8 6.7-.9 10.2.5 1.4 2.6.8 2.2-.6zM229.2 510.8c-4.9-4.3-6.7-11.3-3.1-17 4.1-6.5 13.8-8.2 17.8-.5 2.1 4.1 1.2 9.4-1.3 13.2-2.9 4.4-13.4 9.4-15.3 1.3-.3-1.4-2.5-.8-2.2.6 1.7 7.1 10.7 6.9 15.6 3.3 5.8-4.2 8.5-13 5.1-19.5-4.1-8.1-14-8.1-19.8-1.9-6.1 6.5-5 16.4 1.6 22.1 1.1.9 2.7-.6 1.6-1.6zM233.7 457.1c-4.6-3.8-.3-12.4 5.3-8.4 2.3 1.6 3 4.8.5 6.6-1.9 1.4-4.7 1.4-6.2-.5-.9-1.1-2.5.5-1.6 1.6 2.3 2.9 6.7 2.7 9.4.5 3.2-2.6 2.7-7.1-.3-9.6s-7.6-2.5-10 .8c-2.3 3.2-1.8 8 1.2 10.6 1.2.9 2.8-.7 1.7-1.6zM447.2 749.6c-5-1.6-4.5-9.5-2.4-13.1 2.9-4.9 8.8-5.7 13.5-2.8 5.2 3.3 6.4 10 2.1 14.5-3.7 4-13 5.9-14.8-1.2-.3-1.4-2.5-.8-2.2.6 1.9 7.7 11.7 7.7 16.9 3.6 6.1-4.8 6.5-13.3.5-18.4-5.3-4.5-13.5-4.3-17.5 1.7-3.4 5-3.6 15 3.3 17.2 1.4.5 2-1.6.6-2.1zM252.1 194.8v194.3c0 1.4 2.3 1.5 2.3 0V194.8c0-1.4-2.3-1.4-2.3 0zM276.5 288.5v166.9c0 1.4 2.3 1.5 2.3 0V288.5c0-1.4-2.3-1.4-2.3 0zM326.3 700.5v220.6c0 1.4 2.3 1.5 2.3 0V700.5c0-1.4-2.3-1.4-2.3 0zM363.4 806v105.4c0 1.4 2.3 1.5 2.3 0V806c0-1.5-2.3-1.5-2.3 0zM441.3 818.7c-1.1.8-1.5-1-1.3-1.7.1-.5.5-1 .8-1.5.7-.8 1.6-1.4 2.6-1.7 2-.6 4.1.2 4.9 2.2.7 1.7.5 4-1.3 4.9-1.7.8-4.1 0-4.8-1.8-.5-1.4-2.7-.8-2.2.6 1.2 3.3 5.4 4.8 8.5 2.9 3.3-2 3.1-7 .5-9.6-2.8-2.8-7.7-1.9-10 1-1.2 1.5-1.9 3.7-.8 5.5.9 1.4 2.8 1.9 4.2 1 1.2-.7.1-2.6-1.1-1.8zM431.9 260.6c-1.4-.3-2.9-.5-4.3-.8-.5-1.4-1-2.8-1.6-4.2-.3-1.5.2-3.4.4-4.9.6-3 1.7-6.2 3.9-8.4 5.7-5.9 13.7-2.4 15.8 4.8 1.2 4.2.3 9-2 12.7-2.7 4.3-11.6 9.6-14.7 2.8-.6-1.3-2.6-.2-1.9 1.1 3.5 7.4 13.5 3.7 17.5-1.2 4.9-6.2 5.6-16.1.1-22.1-6.6-7.3-16.5-2.3-19.6 5.6-2 5.2-2.9 20.5 7 16.6 1.3-.4.7-2.6-.6-2z" fill="#e8e8e8"/><path d="M199.4 906.9c-.2 5.3.2 12.2 2.4 19.9 5.3 18.2 17.4 29.1 22.9 33.5-9-2.4-18-4.7-27.1-7.1-1.1 2.4-3.3 8-1.8 14.7 2 8.9 9.9 16 20 18.2-6.3.2-12.6.4-18.8.6-4 10.2-8.7 26.1-8.2 45.9.2 10.1 1.7 18.8 3.5 25.9-8.2-3.7-16.5-7.5-24.7-11.2-1-12.7-1.5-23.5-1.8-31.8-.5-13.5-.2-18.5 1.4-24.7 2.4-8.8 6.6-15.4 9.8-19.5-2-5.7-1.2-9-.2-11 2.3-4.3 7-4.5 8.8-9.3.8-2 .6-3.6.3-6.7-.7-7.4-1.3-13.6-1.1-18.2.4-7.1 3.3-17.6 9.9-19.5 1.9-.2 3.5 0 4.7.3z" opacity=".1" fill="#606060"/><path d="M238.5 148.5c-.5 2.1-3.3 13.5 3.5 23.7 3.1 4.7 7.1 7.4 9.7 8.8.4 23.2.6 60.9-.9 107.3-6.1 190.8-35.1 332.8-11.2 496.7 4.5 30.9 11.1 91.5 54.7 118.7 6.4 4 17 9.4 44 14 30.5 5.2 80.3 9.1 144.7-6.7-55.2 18-102.4 23.7-135.3 25.3-76.6 3.9-113.1-11.8-125-17.4-11.4-5.4-20.4-10.9-26.4-15 .5-11.3 1.2-29.5 1.8-51.9 1.2-53.9.3-94.2 0-107.3-2-92.5-1.6-238.2-.9-465.3.1-33.5.2-60.4.3-75.4-1.2-1.2-3-3.1-4.3-5.7-2.4-4.8-2-9-1.7-16.9.1-3.8.3-9.6.3-16.9 2.5-2 6.3-4.7 11.4-7.2 1.4-.6 5.8-2.7 18.9-5.7 4.1-.8 9.7-2 16.4-3.1z" opacity=".05" fill="#606060"/></g><g><path d="M337.2 348.9c-3.5 7.7-2.9 13.1-8 16.4-4.2 2.8-6.9.6-11.5 2.7-8.1 3.6-10.4 15-11.5 21.3-2.7 14.5 1.2 19.9 2.2 37.2.3 4.9.9 20.7-3.5 38.5-5.4 21.5-12.5 23.3-12.4 39 0 4 .2 16.8 8.4 27.9 5.6 7.6 8.8 6.2 16.8 14.2 6.5 6.5 7.7 10.7 19.1 33.2 8.5 16.9 12.8 25.4 15.5 27.9 12.2 11.4 28.7 12.3 40.3 12.8 11.7.6 25.1 1.3 36.8-7.5 9.4-7.1 13.7-17.3 14.2-18.6 3.6-9.1 1.2-12.3 5.3-20.8 2.9-6.1 5.8-7.7 13.7-16.4 4.4-4.8 11.3-12.4 16.8-20.8 9.9-15.2 12.8-29.6 14.2-36.8 1.6-8.3 2.7-14.6.9-22.6-1.6-7.1-4.4-10.2-8-17.3-4.2-8.4-5.8-15.4-8.9-29.2-7.1-32-3.1-37.1-9.7-62-5-18.6-10.5-27.9-17.3-35-4.3-4.5-12-12.5-21.7-12-7 .4-14.3 5.2-17.7 7.5-6.2 4.1-6.7 6.3-10.6 7.1-6 1.2-9.1-3.3-16.8-6.2-9.6-3.7-21.9-3.3-31 1.8-9.7 5.3-14.5 15.3-15.6 17.7zM286.2 359.1c-3.7-3.3-3.3-8.8-3.1-11.1.8-9.6 8.5-15.9 9.7-16.8 7.8-6.1 11.7-2.3 18.2-8 6.8-6 4.6-12 11.5-15.9 3.8-2.1 9.8-3.4 13.3-.4 3.9 3.3 2.6 10.2 2.2 12-1.6 8.5-7.9 13.8-16.4 20.8-10.9 9-12.4 6.5-18.2 13.3-3.2 3.8-5.6 7.9-10.2 8.4-3.8.4-6.8-2.1-7-2.3zM291.1 570.9c-.3 2.6.1 5.1 2.7 11.1 2.4 5.7 4.2 8.4 6.2 12.4 5.2 10.1 4.4 12.7 9.7 21.7 4.9 8.3 7.1 8.9 8.4 8.9 3.9 0 6.6-5.7 7.1-6.6 2.7-5.7 1.3-11.6.4-14.6-1.2-4.5-2.3-4.6-5.3-11.1-3.4-7.5-2.5-8.8-6.2-17.3-4.2-9.8-7-11.6-8.4-12.4-.8-.5-5.2-2.8-9.3-.9-4.4 2-5.2 7.6-5.3 8.8zM471 619.6c-2.9.1-5.8-8.4-6.2-15.5-.2-3.3-.5-8.6 2.7-13.3 3-4.6 5.5-3 9.7-8 5-5.8 4.2-11.1 8.4-12.4 1.7-.5 3.9-.3 5.3.9 2.7 2.4 1.4 7.8 0 13.3-.9 3.5-2.2 8.6-5.8 14.6-3.7 6.2-5.2 5.8-9.3 12.8-3 5.3-3.4 7.6-4.8 7.6z" opacity=".52" fill="#5222d0"/><path d="M358.7 561.8c-8.8-10.3-14-23.9-11.7-25.4 1.5-1 4.9 4.2 16.3 12.7 13.9 10.5 22.1 12.5 21.9 17.8-.1 3.3-3.6 6.2-6.6 7.1-7.6 2.2-15.9-7.6-19.9-12.2zM460.5 492.6c4.8-15.9 4.1-25.6 8.7-26.5 3.1-.6 6.5 3.2 8.1 6.1 2.1 3.8 2.3 8.2-4.1 27-7 20.7-10.3 24.1-14.2 25.4-.7.3-5.8 1.9-8.1-.5-3.8-3.8 3.9-12.8 9.6-31.5zM342.4 376.5c-2.3-3.6 9.3-14.7 18.3-23.4 7.3-7 11.7-11.2 13.2-10.2 2.1 1.4-2.3 11.4-6.1 17.8-3.5 5.9-8.6 14.3-17.8 16.3-1.6.4-6.3 1.4-7.6-.5z" fill="#ec615b"/><ellipse cx="319" cy="509.3" rx="4.6" ry="9.4" fill="#ec615b"/><ellipse cx="422" cy="554.7" rx="3.2" ry="3.5" fill="#ec615b"/><ellipse cx="432.3" cy="496.2" rx="3.8" ry="3.7" fill="#ec615b"/><ellipse cx="339.7" cy="427.7" rx="8.9" ry="8.4" fill="#ec615b"/><ellipse cx="460" cy="427.7" rx="10.2" ry="8.4" fill="#ec615b"/><path d="M322.4 363.8c-25.7 12.3-18.2 45.7-15.9 68 1.7 16.6-2.3 31.3-7.7 46.9-4.4 12.5-10 26.5-7.2 40 2.7 13.2 14.6 19.6 23.8 28 11.3 10.3 17.7 23.1 22 37.5 3.5 11.8 8.8 21.4 19.7 27.8 10.7 6.3 23.4 8.8 35.7 9.6 13.6 1 28-1 39.4-9.1 10.3-7.4 14.3-17.4 16.6-29.4 1.4-7.2 3-14.3 8.6-19.5 5-4.7 10.6-8.2 15-13.6 7.9-9.8 12.5-21.7 16.6-33.5 4.6-13.5 9.8-27.7 5.6-42-2-6.9-5.5-13.3-8.3-19.9-2.9-6.9-5.1-14.2-6.8-21.5-6.4-27.8-6.1-57.4-18.1-83.7-5-10.9-12.4-22-24-26.5-5.3-2.1-11.4-2.7-17-1.3-5.8 1.5-9.3 5.2-13.6 9-7.8 6.9-15.3 1.4-23.5-1.4-6.7-2.2-13.9-3.2-21-2.2-11.5 1.6-21.4 8.7-25.6 19.7-2.7 7.1-5 18.8-15 17.7-1.9-.2-1.9 2.8 0 3 13.1 1.5 14.8-14.3 19.1-22.7 7.2-14.3 24.9-17.3 39.1-13.4 5.7 1.6 10.9 5.1 16.8 5.9 5.2.7 9.1-1.6 12.8-4.9 5.4-5 10.2-8.7 18-8.4 7.4.2 14.1 3.7 19.3 8.9 19.1 18.7 21.7 50.3 25.3 75.3 1.9 13.4 4 26.9 8.4 39.8 4.5 13.3 13.5 25.7 12.7 40.3-.7 13.1-6.3 26.8-11.2 38.9-5.2 12.8-12.1 23.1-23 31.6-4.3 3.4-7.7 6.8-9.8 11.9-2.2 5.2-2.9 10.9-4.1 16.5-3 13.9-11.8 24.1-25.3 28.9-13.6 4.9-29.3 3.8-43.2.6-11.5-2.7-23.4-7.9-30.1-18.1-3.9-5.9-5.4-12.8-7.4-19.4-1.8-5.8-4.1-11.3-7.2-16.5-6.4-10.9-15.3-18.3-24.9-26.3-5.8-4.8-10.8-10.3-12.4-18-1.6-8.1.3-16.4 2.5-24.2 4.3-14.7 10.9-28.8 12.7-44.1 1.8-16.4-3.5-32.3-3.4-48.6.1-13.4 4.7-28.3 17.6-34.5 1.7-1.3.2-3.9-1.6-3.1z" fill="#161616"/><path d="M399.6 419.2c0 3.5-.5 11.1-5.9 10.1-1.9-.3-2.7 2.6-.8 2.9 2.9.5 5.6-.6 7.4-3 2.2-2.8 2.3-6.6 2.3-10 0-1.9-3-1.9-3 0z" fill="#161616"/><path d="M399.1 428.3c4 3.9 9.2 7.3 15 6.5 4.9-.6 9.1-4.2 9.9-9.2.3-1.9-2.6-2.7-2.9-.8-.7 4.2-4.3 7.1-8.6 7.1-4.5 0-8.3-2.8-11.3-5.8-1.3-1.2-3.5.9-2.1 2.2zM333.1 427.6c3.4 3.2 6.9 6.4 10.3 9.6 1.4 1.3 3.5-.8 2.1-2.1-3.4-3.2-6.9-6.4-10.3-9.6-1.4-1.3-3.5.8-2.1 2.1zM338 423.3c3.4 3.3 6.5 6.8 9.3 10.7 1.1 1.6 3.7.1 2.6-1.5-2.9-4.1-6.1-7.8-9.7-11.3-1.5-1.3-3.6.8-2.2 2.1zM455.4 432.6c2.7-2.9 5.7-5.3 9.1-7.3 1.6-1 .1-3.6-1.5-2.6-3.6 2.2-6.8 4.8-9.7 7.8-1.4 1.4.7 3.5 2.1 2.1zM459.4 436.6c1.4-1.2 2.8-2.4 4.3-3.6.6-.5.5-1.6 0-2.1-.6-.6-1.5-.5-2.1 0-1.4 1.2-2.8 2.4-4.3 3.6-.6.5-.5 1.6 0 2.1.6.6 1.5.5 2.1 0zM373.3 618.9c.9 31.4 1.8 62.7 2.7 94.1.1 1.9 3.1 1.9 3 0-.9-31.4-1.8-62.7-2.7-94.1-.1-1.9-3.1-1.9-3 0zM401.9 622.5c-.6 29.5-1.1 59.1-1.7 88.6 0 1.9 3 1.9 3 0 .6-29.5 1.1-59.1 1.7-88.6 0-1.9-3-1.9-3 0z" fill="#161616"/><path d="M375.5 714.2v27.7c0 1.9 3 1.9 3 0v-27.7c0-1.9-3-1.9-3 0z" fill="#161616"/><path d="M374.4 713.8c-1.7 7.6-4 14.9-7.1 22-.8 1.8 1.8 3.3 2.6 1.5 3.2-7.3 5.7-14.9 7.4-22.7.4-1.9-2.5-2.7-2.9-.8z" fill="#161616"/><path d="M376.9 714.5c2.6 7.7 5.3 15.4 7.9 23.1.6 1.8 3.5 1 2.9-.8-2.6-7.7-5.3-15.4-7.9-23.1-.6-1.8-3.5-1-2.9.8zM399.2 710.8c-1.7 7-3.3 14-5 21.1-.4 1.9 2.4 2.7 2.9.8 1.7-7 3.3-14 5-21.1.4-1.9-2.5-2.7-2.9-.8z" fill="#161616"/><path d="M400.3 712.2c2.2 7.4 4.4 14.9 6.6 22.3.5 1.8 3.4 1.1 2.9-.8-2.2-7.4-4.4-14.9-6.6-22.3-.6-1.9-3.5-1.1-2.9.8z" fill="#161616"/><path d="M399.6 715.4c.2 6 .5 12.1.7 18.1.1 1.9 3.1 1.9 3 0-.2-6-.5-12.1-.7-18.1-.1-1.9-3.1-1.9-3 0zM420 417.3c-.8 4.4.7 8.7 4.1 11.6 1.5 1.2 3.6-.9 2.1-2.1-2.6-2.1-3.9-5.3-3.4-8.7.4-1.9-2.5-2.7-2.8-.8zM342 404.7c11.5-5 30.6-6.3 33.5 9.8.3 1.9 3.2 1.1 2.9-.8-1.2-6.7-6.1-11.8-12.4-14.2-8.4-3.2-17.6-.8-25.5 2.6-1.8.8-.2 3.4 1.5 2.6zM433.1 410c4.9-7.2 22.8-25.1 30.3-11.7.9 1.7 3.5.2 2.6-1.5-9-16.1-29.4 2.7-35.5 11.7-1 1.6 1.6 3.1 2.6 1.5zM369.9 374.9c2.6-1.8 5.5-2.6 8.6-2.5 1.9.1 1.9-2.9 0-3-3.6-.1-7.1.9-10.1 2.9-1.6 1.1-.1 3.7 1.5 2.6zM431 362.6c3.4-.1 6.6.7 9.5 2.4 1.7.9 3.2-1.6 1.5-2.6-3.4-1.9-7.1-2.9-11.1-2.8-1.8 0-1.8 3 .1 3zM339.8 478.7c7.8 15.4 18.5 37.9 39.3 34.7 17.1-2.6 30.9-16.8 34.8-33.3.4-1.9-2.4-2.7-2.9-.8-3.5 15-15.6 27.9-30.9 30.9-20 4-30.2-18.3-37.6-33-1-1.8-3.6-.2-2.7 1.5z" fill="#161616"/><path d="M412.2 478.2c-2.1-4.1-2.8-8.6-2-13.1.3-1.9-2.6-2.7-2.9-.8-.9 5.4-.1 10.5 2.3 15.4.8 1.7 3.4.2 2.6-1.5z" fill="#161616"/><path d="M413.8 478.5c.8-5.1 2.6-9.6 5.5-13.8 1.1-1.6-1.5-3.1-2.6-1.5-3.1 4.4-5 9.3-5.8 14.6-.3 1.8 2.6 2.6 2.9.7z" fill="#161616"/><path d="M414.6 479.2c1.7-4.5 5.6-7.8 10.2-9 1.9-.5 1.1-3.4-.8-2.9-5.7 1.5-10.2 5.6-12.3 11.1-.7 1.8 2.2 2.6 2.9.8z" fill="#161616"/><path d="M413.6 482.5c1.6-.6 3.2-.8 4.8-.5 1.9.4 2.7-2.5.8-2.9-2.2-.4-4.4-.3-6.4.5-.8.3-1.3 1-1 1.8.2.8 1.1 1.4 1.8 1.1zM300 360c2.8-6.8 9.8-10.2 15.8-13.8 5.4-3.2 10.3-7 14.4-11.7 6.1-7 15.6-22.1 4.8-29.5-4.1-2.8-8.9-1.5-12.5 1.5-5.5 4.7-7.2 12.1-13.7 16-5.4 3.2-11.7 4.4-16.8 8-4.7 3.3-7.2 8.4-9 13.8-1.8 5.7-2 12.9 3.5 16.7 5.6 3.8 11.4-.5 15.4-4.5 1.4-1.4-.8-3.5-2.1-2.1-3.7 3.6-10.2 7.9-13.8 1.7-2.4-4.2-.8-9.4.9-13.5 2.8-7.1 7.4-10.4 14.2-13.2 4.5-1.8 9.2-3.5 12.9-6.7 4.6-4 6.2-10.6 11.2-14.1 4.8-3.4 10.3-1.4 11.5 4.5.9 4.5-1.5 9.2-3.7 12.9-3.5 5.8-8.2 10.8-13.7 14.7-8 5.7-18 9-22.1 18.7-.8 1.5 2.1 2.3 2.8.6zM297.2 580.9c-2.8-2.5-4.6-5.3-4.6-9.1 0-4.1 2.6-8.3 7.1-8.7 6.6-.5 10.5 6.9 12.1 12.1 1.4 4.4 2.3 8.9 4.2 13 2.2 4.7 5.5 8.9 7.5 13.7 1.1 2.8 1.8 5.7 1.7 8.7-.1 2.5-.6 7.4-2.5 9.2-1.4 1.3-7.2 1.5-8.6.2-1-.9-1.7-2.7-2.3-4-1.5-2.8-2.7-5.7-3.8-8.7-1.6-4.2-3.1-8.3-5.6-12-3-4.5-7.7-9.1-6.9-14.9.3-1.9-2.6-2.7-2.9-.8-.7 5.3 1.5 9.4 4.5 13.6 4.3 6 6.6 12.2 9.5 19 1.9 4.4 4.5 11.6 9.1 13.9 4.4 2.2 8.1-1.9 9.9-5.5 2.5-4.9 3.1-10.7 1.8-16-1.5-6.4-5.8-11.5-8.6-17.3-4.3-9-4.7-25.8-17.8-27.2-5-.5-9.5 2.8-11.1 7.4-2.1 5.7.7 11.5 5 15.4 1.6 1.4 3.7-.7 2.3-2zM468.1 614.6c-2.4-8.6-4-19.4 3.4-26 3.1-2.7 6.5-4.7 9.2-7.8 1.1-1.3 2.1-2.6 3.1-4 .6-.9 2-4.8 2.8-5.1 4.5-1.9 3.7 10.4 3.4 12.5-.5 4.6-2 9.2-4.3 13.3-2.2 3.9-5.1 6.8-8.2 9.9-1.1 1.1-2.2 2.2-2.8 3.7-.3.6-.4 1.3-.4 2.1-.1 2.1-2 2.4-5.5 1.1.2-1.9-2.8-1.9-3 0-.5 4.1 2.8 7.9 7.1 6.7 1.7-.5 3.2-1.9 3.8-3.6 1.1-2.8-.7-3.4 1.8-6.9 1.1-1.5 3-2.7 4.3-4 8.1-8.5 12.1-21.3 9.7-32.9-.6-3.1-2.7-7.8-6.7-5.4-2.1 1.2-2.8 4.1-3.9 6-2.3 3.8-5.3 6.9-8.8 9.6-4.8 3.6-8.5 7.2-9.7 13.3-1.2 6.1 0 12.5 1.6 18.5.7 1.6 3.6.8 3.1-1z" fill="#161616"/></g><g><path d="M1050.6 358.4c-8.9 3.3-17.9 6.6-26.8 9.9-9.5 22.6-18.5 47.7-26.4 75.1-20.1 70.6-25.7 134.6-25.6 185.7 12.2 3.8 25.4 7.3 39.5 10.4 35.5 7.7 67.9 10.3 95.6 10.4.9-60.5 1.8-121 2.8-181.5.7-34.6 1.4-69.3 2.1-103.9-3.7-3.1-13.5-10.6-28.4-12.5-16.4-1.9-28.7 4.2-32.8 6.4z" fill="#ec615b"/><path d="M1080.6 352.8c-9.7 4.8-10 21.6-10.3 34.3-.8 32.5-8.2 64.9-6.2 97.3 2 32.7-6.3 82.2-54.1 154.9 16.2 3.1 34.1 5.8 53.5 7.5 15.3 1.4 29.7 2 43.2 2.1.5-17.8.9-35.6 1.4-53.5 1.9-77.2 3.2-154.4 4.1-231.7-4.2-3.3-20.7-16.4-31.6-10.9z" opacity=".12" fill="#606060"/><path d="M1007.9 1018.8c2.8 16 5.5 32 8.3 48-10.8 4.5-19.5 8.1-25.2 10.4-22.4 9-32.6 12.4-48.3 20-7.3 3.6-13.1 6.7-16.6 8.6 5.8 1.2 14.7 2.6 25.5 2.1 8.7-.5 14.1-1.9 22.1-3.8 10.1-2.3 3.8-.5 60.4-10.4 5.4-.9 13.5-2.4 23.5-4.1-.6-10.5-1.4-21.4-2.4-32.4-2.3-25-5.7-48.7-9.7-70.8-12.5 10.8-25.1 21.6-37.6 32.4z"/><path d="M984.3 631.6c-1.3 5.3-3.2 13.5-4.5 23.8-2.3 17.8-1.7 31.2-1.5 35.8 1 26.3-2.5 47.6-4.5 84.9-2.8 54.4.1 98.5 4.5 166.1 2 30.8 4.3 56.2 6 73.7 11.8 2.3 21.7 3.3 29.1 3.7 15.3.9 28.5 1.6 44-3.7 5.2-1.8 9.3-3.8 11.9-5.2-1.3-12.2-3.3-31.2-5.2-54.4-9.2-111.3-7.1-196-6-227.9.7-19.1 1.9-46.3 4.5-79-12.7-2.9-23-4.7-30.2-5.8-13.7-2.2-23.2-3-36.5-7.6-5.1-1.6-9-3.3-11.6-4.4z" fill="#fff"/><path d="M1020.2 642.3c.5 12.7 1.2 31.5 1.9 54.4 2.1 73.7 1.5 118.2 1.9 164.6.3 37.7 1.4 91.5 5.1 157.6 5.6.4 13.6.4 22.8-1.9 6.8-1.7 12.3-4.1 16.5-6.3-1.5-16.4-3.6-40.7-5.7-70.3-4.9-67.3-7.9-109.9-7.6-159.5.2-32 1.9-77.4 8.9-132.3-14.7-2.1-29.2-4.2-43.8-6.3z" opacity=".12" fill="#606060"/><path d="M982.4 633.9c-10.6 98.7-12.8 198.2-6.4 297.3 1.8 28.2 4.3 56.4 7.5 84.4.2 1.9 3.2 1.9 3 0-11.2-98.6-13.9-198.1-8.1-297.2 1.6-28.2 4-56.4 7-84.5.2-1.9-2.8-1.9-3 0z" fill="#161616"/><path d="M983.2 633c3.5 3 8 3.5 12.4 4.4 6 1.3 12.1 2.6 18.1 3.9 12.1 2.6 24.2 5.2 36.2 7.8 1.9.4 2.7-2.5.8-2.9l-32.4-6.9-15.3-3.3c-5.3-1.1-13.4-1.5-17.7-5.1-1.4-1.2-3.5.9-2.1 2.1zM984.2 1017.1c1.9 2 4.3 2.2 7 2.5 4 .5 8.1 1 12.1 1.4 8.7.9 17.4 1.5 26.2 1.4 8.1-.2 16.3-1 24.2-3 3.9-1 7.7-2.2 11.3-3.7 2.2-.9 4.2-1.4 5.1-3.7.2-.5 0-1.1-.4-1.5l-.4-.4c-1.4-1.4-3.5.7-2.1 2.1-1.1-1.1-9.3 2.9-11.1 3.4-2.7.8-5.5 1.4-8.3 2-6.9 1.3-14 1.8-21 1.8-6.4 0-12.8-.4-19.2-1-3.2-.3-6.4-.6-9.6-1-3.2-.4-9.5-.1-11.8-2.5-1.3-1.4-3.4.8-2 2.2z" fill="#161616"/><path d="M1055.1 738.3c-4.7 70.7-.2 141.5 6.5 211.9 1.9 20 4 40 6 60 .2 1.9 3.2 1.9 3 0-7.3-70.4-14.6-140.9-14.5-211.7 0-20.1.7-40.1 2-60.1.2-2-2.8-2-3-.1zM1007.1 1022l8.1 45.9c.3-.6.7-1.2 1-1.8-31.7 9.8-62.2 22.7-91.3 38.5-.9.5-1 2.1 0 2.6 9.1 4.1 18.9 2.5 28.5 1.3 11.4-1.5 22.7-3.1 34-4.9 23.6-3.8 47.2-8.2 70.5-13.3.6-.1 1.2-.8 1.1-1.4-2.3-23.1-4.6-46.1-7-69.2-.2-1.9-3.2-1.9-3 0 2.3 23.1 4.6 46.1 7 69.2.4-.5.7-1 1.1-1.4-21.5 4.7-43.1 8.9-64.8 12.4-10.5 1.7-21.1 3.3-31.7 4.8-10.8 1.5-23.8 4.8-34.2.1v2.6c28.9-15.7 59.2-28.5 90.6-38.2.8-.3 1.2-1 1-1.8l-8.1-45.9c-.3-2.2-3.2-1.4-2.8.5z" fill="#161616"/><g><path d="M1098.4 1008.5c5.2 17.9 10.3 35.8 15.5 53.6-9.3 5.9-17.1 10.1-22.1 12.7-21.8 11.3-32.7 13.1-47 24.3-6.9 5.4-11.7 10.7-14.4 13.8 16.6-2.5 34.1-5.7 52.5-10 25.6-5.9 49.1-12.7 70.2-19.9-7.6-30.6-15.1-61.2-22.7-91.8-10.6 5.8-21.3 11.6-32 17.3z"/><path d="M1014 640.4c-1.7 2.6-3.9 6.8-4.4 12.1-1 12.2 8.3 20.1 14.7 31.6 5.2 9.3 7.1 18.9 11 38.2 4.7 23.5 2.9 32.7 5.5 79.4.6 10.8 1.2 19.4 2.5 36.6 1.8 23.5 4.2 55.7 7.4 82.8 2.9 23.9 8.1 57.5 18.2 98.4 11.1.7 25.8.6 42.6-2.8 21.8-4.3 38.7-12.4 49.8-18.8-1.3-7-3.5-19-6.1-33.7-14.3-83.2-20.7-149.2-24.6-190.1-2.1-21.7-3.1-32.5-3.6-42.4-1.2-23.2-.5-35-3.3-55.6-1.6-12-3.7-21.6-5.2-27.9-34.7-2.6-69.6-5.2-104.5-7.8z" fill="#fff"/><path d="M1061.8 643.5c5.4 11.5 13.4 29.5 20.9 52.1 14.1 42.7 21 84.9 26.1 212.3 1.1 27.4 2.3 63.7 3 106.5 8.3-1.3 18.3-3.5 29.1-7.4 7.7-2.8 14.4-5.9 20.1-8.9-1.6-9.2-4-23.2-6.7-40.2-7.4-46.3-19.4-122.1-26.8-217.5-1.7-22.2-3.8-53-5.2-90.1-20.3-2.3-40.4-4.6-60.5-6.8z" opacity=".1" fill="#606060"/><path d="M1017.2 681c15.3 12.7 17.5 33.7 18.8 52.2 1.6 23.3 2.8 46.6 4.1 69.9 2.6 46 5.5 92.1 12 137.7 3.7 26.2 8.7 52.1 15.3 77.7.5 1.9 3.4 1.1 2.9-.8-24.3-93.5-24.6-190.2-31.4-285.9-1.3-18.9-4.1-40.1-19.6-52.9-1.5-1.2-3.6.9-2.1 2.1z" fill="#161616"/><path d="M1068.8 1019.9c18.4 1.4 36.9-.1 54.8-4.7 8.5-2.2 16.9-5 25-8.6 5.5-2.4 13.9-4.7 14.7-11.6.2-1.9-2.8-1.9-3 0-.5 4.2-7.5 6.5-10.7 7.9-4 1.8-8 3.4-12.1 4.9-7.1 2.5-14.3 4.5-21.6 6.1-15.5 3.2-31.3 4.2-47 3-2-.1-2 2.9-.1 3z" fill="#161616"/><path d="M1121 658.1c5 87.9 13.8 175.5 26.3 262.6 3.6 24.7 7.4 49.3 11.6 73.9.3 1.9 3.2 1.1 2.9-.8-14.6-86.5-25.5-173.7-32.6-261.1-2-24.8-3.7-49.7-5.2-74.6-.1-2-3.1-2-3 0zM1099.6 1018.4l13.5 46.2c.2-.6.5-1.1.7-1.7-15.7 7.3-31.3 15-46.6 23.1-13.1 6.9-28 13.5-37.4 25.4-1 1.2-.1 2.7 1.5 2.5 41.5-5.8 82.3-15.5 122-29.1.8-.3 1.2-1 1-1.8-5.6-24.6-11.3-49.2-16.9-73.8-.4-1.9-3.3-1.1-2.9.8 5.6 24.6 11.3 49.2 16.9 73.8.3-.6.7-1.2 1-1.8-39.6 13.6-80.5 23.4-122 29.1.5.8 1 1.7 1.5 2.5 9.5-12.2 25.1-18.8 38.5-25.9 14.8-7.8 29.7-15.2 44.9-22.2.6-.3.9-1.1.7-1.7l-13.5-46.2c-.5-1.8-3.4-1.1-2.9.8z" fill="#161616"/></g><g><path d="M1088 353.1c-1.1 3.4-2.6 8.3-4.3 14.3-4.1 14.5-9.2 35-14.3 68.1-2.6 16.7-7 46-9.1 85.7-.5 9.6-1.4 30 1 109.1 1.5 51.3 2.3 77 3.8 98.6 3.4 48.1 8.6 88.9 13.3 126.7 2.5 19.4 4.7 35.4 6.2 46.2 7.9.9 18.8 1.5 31.4 0 6.9-.8 36.7-4.8 67.2-26.7 7-5 15.8-12.2 24.8-22.4-4.7-14-11.1-34.1-17.6-58.6-4.3-15.9-18-68.4-31-167.2-4.5-34.4-3.6-33.9-14.8-135.3-4.4-39.8-8.1-72.3-10.5-93.4-.5-5-2.2-15.6-10-25.7-12.9-16.8-32.4-19.1-36.1-19.4z" fill="#fff"/><path d="M1115.6 365.5c2.5 9.7 5.9 24.2 9.1 41.9 8.9 49.3 8 78.8 10 117.7 3.6 70.5 11.2 65.4 18.1 157.2 3.2 42 4.8 64.7 3.3 96.2-2.3 49.9-11 90.8-18.6 119.1 9.1-2.8 20.2-7.1 31.9-13.8 17.1-9.8 29.5-21.1 37.6-30-2.3-7.3-5.7-18.2-9.5-31.4-11.9-41.7-23.3-91.3-36.2-186.7-7.7-56.7-6-56.8-17.1-147.2-5.3-43.2-10.1-78.6-13.3-102.4-1.8-3.8-4.4-8.2-8.1-12.9-2.4-3.2-4.9-5.7-7.2-7.7z" opacity=".12" fill="#606060"/><path d="M1086.3 353.2c-16.5 48.9-23.3 100.3-25.7 151.7-2.5 54-1.1 108.3.4 162.3.9 31.6 2.1 63.1 3.5 94.7.1 1.9 3.1 1.9 3 0-2.6-55.8-4.3-111.6-5-167.4-.6-52-.3-104.2 6.9-155.7 4.1-28.7 10.3-57.1 19.7-84.6.7-2-2.2-2.8-2.8-1z" fill="#161616"/><path d="M1089.4 355.2c11.9 3.5 23.6 7.4 31.5 17.4 6.7 8.3 10 18.8 12.1 29.2 2.5 12.1 3.5 24.6 4.7 36.9 1.4 14 2.8 28.1 4.1 42.2 5.2 55.2 11.5 110.4 19.6 165.3 4.6 31.4 9.7 62.7 15.3 94 .3 1.9 3.2 1.1 2.9-.8-10.4-57.9-19-116-26-174.4-3.4-29-6.4-58-9.1-87-1.4-14.7-2.8-29.4-4.3-44.1-1.2-11.4-2.2-23-4.6-34.3-2.3-10.8-6.2-21.6-13.5-30.1-8.3-9.7-20.1-13.7-32-17.1-1.8-.6-2.6 2.3-.7 2.8zM1063.4 741.1c3.3 54 10.1 107.7 20.2 160.8.4 1.9 3.3 1.1 2.9-.8-10.1-52.9-16.8-106.3-20.1-160-.1-2-3.1-2-3 0z" fill="#161616"/><path d="M1085.6 904.8c45.3 2.6 90.7-15.5 121.7-48.7 1.3-1.4-.8-3.5-2.1-2.1-30.5 32.6-75 50.4-119.6 47.8-1.9-.1-1.9 2.9 0 3z" fill="#161616"/><path d="M1175.1 732.4c8.2 41.3 18.6 82.1 30.9 122.3.6 1.8 3.5 1.1 2.9-.8-12.4-40.2-22.7-81-30.9-122.3-.4-1.9-3.3-1.1-2.9.8zM1088.3 668c-.8 13.6.1 27.2 2.9 40.5 2.5 11.6 6 24.2 12.5 34.3 5.7 8.8 14.3 14.2 25 13.4 7.9-.6 17.5-4.8 17.7-13.9.1-1.9-2.9-1.9-3 0-.3 11.5-18.1 12.5-25.8 9.3-9-3.8-13.7-13.3-17-21.9-7.6-19.6-10.6-40.7-9.3-61.6.1-2-2.9-2-3-.1zM1094.7 669.6c6.5 9.2 14.9 17.1 25.5 21.4 5.2 2.1 10.9 3.4 16.5 3.5 3.8.1 9.1.3 11.2-3.5.9-1.7-1.7-3.2-2.6-1.5-2.1 3.8-12.7 1.9-15.9 1.3-4.4-.9-8.6-2.4-12.6-4.6-7.9-4.3-14.4-10.7-19.5-18-1.1-1.7-3.7-.2-2.6 1.4z" fill="#161616"/><path d="M1096.8 660.8c8.7 9.9 20.4 16.4 33.4 18.6 1.9.3 2.7-2.6.8-2.9-12.6-2.1-23.7-8.3-32.1-17.8-1.2-1.5-3.3.6-2.1 2.1zM1087.7 353.8c1.5 5.4 7.1 6.6 10.4 10.6 4.8 5.9 3.4 14.6 1.7 21.4-2 7.8-4.8 15.4-7.7 22.9-2.7 7.3-7.4 14.9-8.7 22.7-1.2 7.1 3.7 13 3.8 20 0 8.9-3.9 18.3-6 26.9-4.2 17-8 34-11.3 51.2-3.8 19.7-7.1 39.5-9.8 59.4-.3 1.9 2.6 2.7 2.9.8 4.9-35.9 11.6-71.6 20.2-106.8 2.1-8.6 4.8-17.1 6.4-25.8.6-3.1.9-6.4.4-9.5-.6-3.7-2.5-7-3.4-10.7-1.1-4.8 1-9.1 2.8-13.4 1.7-4 3.3-8.1 4.9-12.2 3-7.9 5.9-15.9 8.1-24 1.7-6.3 2.9-13.5.7-19.8-.9-2.5-2.3-4.7-4.2-6.5-2.8-2.6-7.3-4-8.4-8-.4-1.9-3.3-1.1-2.8.8z" fill="#161616"/></g><g><path d="M1018.5 372.1c-3.1 2.5-8.8 7.1-12.9 11.9-3.3 3.9-5.9 8.2-9.5 17.1-5.4 13.4-7.8 23.9-10 32.9-4.7 19.1-5 17-9.5 35.2-5.7 22.7-9.1 41.6-13.8 69.1-7.6 44.7-11.4 67-13.8 85.7-2 15.3-9.9 79.3-10 165.8 0 26.9.7 49.5 1.4 65.7 2.4 1.2 5.1 2.4 8.1 3.3 9.4 3 17.9 3 23.8 2.4-.1-17.4 0-43.3 1-74.8.9-27.6 2-47 2.9-62.4 1.6-29.6 3.6-72 4.8-126.2.7-7.9 1.8-19.2 3.3-32.9 3.8-33.9 6.4-57.8 12.4-86.7 1.6-7.5 5.5-23 13.3-53.8 6.1-24 11.2-43.7 14.8-57.2-1.7 1.3-3.8 2.9-6.3 4.9z" fill="#fff"/><path d="M1023.8 367.1c-34.2 107.1-46.8 219.3-54.2 331-2.1 32.1-3.8 64.2-5.4 96.3-.1 1.9 2.9 1.9 3 0 5.8-112.3 11.9-225.3 35.5-335.6 6.6-30.7 14.5-61.1 24-91 .6-1.7-2.3-2.5-2.9-.7z" fill="#161616"/><path d="M1023.9 366.2c-21.8 12.8-31.2 37.4-37.7 60.6-8.8 31.5-15.8 63.6-22.1 95.8-12.7 65.5-20.9 131.9-24.5 198.5-2 37.9-2.5 75.9-1.6 113.8 0 1.9 3 1.9 3 0-1.6-65.3 1.1-130.7 8.3-195.6 7.2-65.1 18.9-129.7 34.9-193.2 7-27.9 14.3-61.6 41.1-77.3 1.8-1 .3-3.6-1.4-2.6z" fill="#161616"/><path d="M937.8 829c.1 6.4.1 12.8.2 19.3 0 3.7-.6 8.4 2.3 11.2 2.6 2.5 6.9 2.6 10.3 3 6.5.8 13.1 1.2 19.7 1.3 1.9 0 1.9-3 0-3-4.6 0-9.2-.2-13.8-.6-2.5-.2-5-.5-7.4-.9-3.3-.5-4.1-.3-6.2-3.2-2.8-3.8-1.8-9-1.9-13.6 0-4.5-.1-9-.1-13.5-.1-1.9-3.1-1.9-3.1 0zM1020 369.8c-11.2 6.8-16.6 19.4-17.6 32.1-.4 5.3.4 10.7-.7 15.9-.9 4.3-2.9 8.2-4.7 12.2-3.5 7.9-6.1 16.2-8 24.7-3.7 16.9-4.7 34.3-5.4 51.6-.9 20.2-1.8 40.3-2.7 60.5-.1 1.9 2.9 1.9 3 0 .8-18.6 1.6-37.2 2.5-55.9.8-17.4 1.5-34.9 4.8-52 1.6-8.1 3.8-16 6.8-23.7 2.9-7.3 6.7-13.8 7.1-21.9.4-7.9-.1-15.3 2.5-23 2.5-7.5 7-13.9 13.8-18 1.8-.9.2-3.5-1.4-2.5z" fill="#161616"/></g><g><path d="M1122 369.2c-2.8 8.3-5.8 19.6-6.7 33.4-1 15.3.8 28.2 2.8 37.3 3.1 2.3 7.7 6.4 11 12.8 3.5 6.9 4.4 14.2 3.2 25.9-1.7 16.9-3.7 35.9-17.7 54.6-10.7 14.3-23.8 22.1-31.9 27-6 3.6-11.4 6.1-15.3 7.8 5.3 7.4 5.6 9.6 5 10.3-1.1 1.2-5-2.4-11.7-4.3-9.6-2.6-11.7 2-20.2 0-9.3-2.2-9.5-8.3-19.5-9.9-2.7-.4-10.1-1.6-12.8 2.5-2 3.1-.9 8.3 2.8 12.8-1.2.1-3.1.2-5.3 0-2.9-.3-3.9-.8-5.3-.4-1.2.4-2.7 1.5-3.9 5-4.2-2-8.2-.7-8.9 1.1-.7 1.7 1.1 5 5 6.7-.8.9-1.7 2.2-1.4 3.5.4 1.9 3.2 2.7 7.1 3.5 7.5 1.6 11.5 1.2 16 1.8 6.9.9 7.6 2.9 14.9 5 9.6 2.7 17.7 1.6 22.4 1.1 14.3-1.8 24.7-8.1 30.2-12.1 1.9 5.6 3.8 11.1 5.7 16.7 7.2-1 18.2-3.4 30.2-9.9 12.8-7 20.5-15.3 25.9-21.3 12.9-14.2 19.9-29.1 23.8-40.1 3.1-8.7 4.2-15.3 5.7-23.8 2.3-13.5 5.1-29.4 3.2-49-.7-6.7-3.6-31.3-19.5-58.2-11.7-19.1-25.1-32-34.8-39.8z" fill="#fff"/><path d="M1124.8 373.4c6.6 8 15.2 20 22.4 35.8 3.9 8.6 14.5 34.1 14.2 68.8-.2 24.7-.5 55.2-22.4 80.9-19.1 22.4-44.9 29.5-57.8 31.9-8.6 1-18.5 1.6-29.4 1.1-21.3-1-39.1-5.6-52.2-10.3-7.2.4-9.2 1.9-9.6 3.2-.5 1.5 1.1 2.7 1.1 6 0 2.7-1.1 3.3-.7 4.6.6 2.1 4.2 3.1 11 3.9 10.5 1.3 13.1.5 18.8 1.8 6.1 1.4 5.9 3 11.4 4.6 9.7 2.9 18.4.5 31.6-3.2 4.7-1.3 11.2-3.4 18.8-6.7 1.8 4.8 3.5 9.7 5.3 14.5 8.7-1.5 22.2-4.9 36.2-13.8 14.2-9 22.2-19.4 26.6-25.2 10.8-14.2 15.5-27.3 18.1-34.8 8.6-24.7 8.1-45.4 7.8-56.4-.4-13.7-1.1-34.1-11.7-57.5-11.4-24.7-28.3-40.5-39.5-49.2z" opacity=".12" fill="#606060"/><path d="M1116.4 367.7c32.6 22.2 53 58 56.8 97.1 3.9 40.5-3.8 85.2-32.6 115.7-14.4 15.2-33 26.1-53.8 29.3-1.9.3-1.1 3.2.8 2.9 39.6-6.1 69.2-38.3 81.4-75.1 13.1-39.4 11.7-87.3-7.9-124.3-10.2-19.3-25.1-35.9-43.2-48.2-1.6-1.1-3.1 1.5-1.5 2.6z" fill="#161616"/><path d="M1117.8 442.2c9.7 5.5 11.8 16.8 13.4 27 .3 1.9 3.2 1.1 2.9-.8-1.8-11-4.3-22.8-14.8-28.8-1.7-.9-3.2 1.7-1.5 2.6z" fill="#161616"/><path d="M1132.2 453.6c-.2 32.3-8.8 63.9-25 91.9-1 1.7 1.6 3.2 2.6 1.5 16.5-28.4 25.2-60.6 25.4-93.4 0-1.9-3-1.9-3 0z" fill="#161616"/><path d="M1115.1 527.5c-3.3 10.1-12.8 16.5-21 22.4-8.6 6.1-17.6 11.6-26.9 16.5-1.7.9-.2 3.5 1.5 2.6 10.9-5.8 21.4-12.3 31.2-19.7 7.6-5.7 15-11.8 18-21 .7-1.8-2.2-2.6-2.8-.8z" fill="#161616"/><path d="M1066.3 568.9c6.2 14.4 15.9 27.3 19.1 42.8.4 1.9 3.3 1.1 2.9-.8-3.3-15.8-13.1-28.9-19.4-43.5-.8-1.7-3.4-.2-2.6 1.5z" fill="#161616"/><path d="M1072.1 578.2c-7.7-7.2-16.4-8.2-26.4-6.9-7.4 1-11.8-1.8-17.8-5.5-4-2.4-8.3-4-13-4-7.4 0-11.7 5.2-8.2 12.3 4.1 8.5 15.2 11.2 23.6 12.6 1.9.3 2.7-2.6.8-2.9-7.4-1.3-16.9-3.2-21.2-10.1-.9-1.5-2-4.4-1.3-6.1 1.5-3.6 6.9-3.1 9.8-2.5 3.7.7 6.8 2.6 9.9 4.5 5.3 3.4 10 5.6 16.4 4.8 9.7-1.1 17.7-1.2 25.3 5.9 1.3 1.3 3.5-.8 2.1-2.1zM995.1 584.7c7.4 8.6 18.3 12.4 29.4 10.8 1.9-.3 1.1-3.2-.8-2.9-10.1 1.5-19.9-2.4-26.4-10-1.4-1.4-3.5.7-2.2 2.1z" fill="#161616"/><path d="M987 586.2c3.4 9.3 12.9 11.9 21.9 12.6 1.9.2 1.9-2.9 0-3-7.4-.6-16.1-2.4-19-10.4-.6-1.8-3.5-1-2.9.8z" fill="#161616"/><path d="M988.7 593.3c2.7 6.3 9.4 8.2 15.7 8.5 4.8.3 9.5 0 14.3 1.3 4.4 1.1 8.6 3 12.9 4.3 17.2 5.2 33.5-2.2 48.6-10.1 1.7-.9.2-3.5-1.5-2.6-14.4 7.4-29.9 14.7-46.3 9.8-6.1-1.8-11.9-4.6-18.3-5.3-7.8-.9-19 1.6-22.8-7.4-.8-1.7-3.4-.2-2.6 1.5zM997.9 582.2c-.1 0 2.6-1.1 2.7-1.2 1.2-.3 2.5-.5 3.7-.5 2.3-.1 4.6.5 6.7 1.3 1.8.7 2.6-2.2.8-2.9-4.5-1.7-9.8-2-14.2-.1-2.3 1-4.7 4.5-1.3 6 1.9.8 3.4-1.8 1.6-2.6z" fill="#161616"/><path d="M989.7 586.1c-.9-1.6 3.3-1 3.8-1 1.5.1 2.8 0 4.2-.7 1.7-.9.2-3.5-1.5-2.6-2.3 1.2-5.2-.7-7.6.8-1.8 1-2.5 3.2-1.5 5 1 1.6 3.6.1 2.6-1.5z" fill="#161616"/></g><g><path d="M1003.1 389.1c-5.2 4.4-12.3 11.1-19.2 20.6-3.1 4.3-5.1 7.5-7.6 11.6-4 6.7-11 18.2-17 34.5-2.3 6.1-4.9 14.3-7.2 24.2-4 3-8.1 6-12.1 9-2.2.9-8.8 3.8-13.4 11.2-4.7 7.6-4.3 15.1-4 17.5-4.5.8-9.2 1.6-13.9 2.2-22.6 3.2-43.9 4.3-63.6 4 7.8 9.1 15.5 18.2 23.3 27.3-2.4 2.2-4.8 4.5-7.2 6.7 4.3 5.8 8.7 11.6 13 17.5 5.7-.7 11.3-1.5 17-2.2l26.4 31.8c15.1-1.8 27.7-4.4 37.1-6.7 29.2-7 50.6-16.4 60.4-21 8.2-3.8 14.8-7.4 19.2-9.8-2.5-6.5-5-11.5-6.7-14.8-5-9.4-15-27.7-34.9-40.3-3.8-2.4-7.1-4-9-4.9-.5-13.6.6-24.8 1.8-32.7 3.1-20.8 9.9-39.6 10.7-42.1 2.5-7 4-9.8 5.4-16.1 2.7-11.3 2.3-21 1.5-27.5z" fill="#fff"/><path d="M994.4 399.2c-6.1 11.7-12.5 25.6-18 41.8-5.2 15.1-8.7 29.1-11.1 41.5-3.5-.9-7.3.2-9.8 2.8-2.5 2.7-3.4 6.6-2.2 10.1-3.1.5-8.6 1.8-13.6 6-11.7 9.8-9.7 26.1-9.5 27.5-4.4.5-9.1 1.2-13.9 2.2-19.8 4.2-35.8 11.9-47.8 19.3-7.5-8.9-15-17.7-22.5-26.6 24.5-1.7 48.9-3.4 73.4-5.1.6-3.4 2-8.2 5.1-13.3 5.4-8.9 12.8-13.3 16.5-15.2.7-1.4 1.5-2.7 2.2-4.1 2.7-2.1 5.5-4.2 8.2-6.3 1.6-7.9 3.4-14.2 4.7-18.4 3.9-12.2 10.9-33.7 28.8-53.2 4-4.1 7.4-7.2 9.5-9z" opacity=".11" fill="#606060"/><path d="M1003.6 386.3c-26.8 24.4-45.4 57-52.6 92.6-.4 1.9 2.5 2.7 2.9.8 7.1-35.1 25.3-67.2 51.8-91.3 1.4-1.3-.7-3.4-2.1-2.1zM945.1 487.7c-7.8-.5-13.5 5.1-17.9 11-5.3 7.1-7 15.6-6 24.4.6 5.1 4.5 13 11 10.5 3-1.2 4.4-4.6 5.7-7.3 2-4.3 3.8-8.7 5.5-13.1.7-1.8-2.2-2.6-2.9-.8-1.1 2.8-2.2 5.7-3.4 8.5-.9 2-1.7 5.2-3.1 6.7-.2.4-.5.8-.7 1.2-2.5-.2-5-.5-7.5-.7-1.1-1-1.4-3.7-1.6-5.1-.3-2.5-.2-5-.1-7.5.7-10.2 8.8-25.4 20.9-24.7 2.1 0 2.1-3 .1-3.1z" fill="#161616"/><path d="M940.7 489.9c6.8-2.6 13.1 9.6 14.6 14.6.6 1.8 3.5 1.1 2.9-.8-2-6.6-9.5-20-18.3-16.7-1.8.7-1 3.6.8 2.9z" fill="#161616"/><path d="M942.2 488.5c6.5-4.1 14.6-8.7 21.8-3.4 1.6 1.1 3.1-1.5 1.5-2.6-8.1-6-17.4-1.3-24.8 3.4-1.7 1.1-.2 3.7 1.5 2.6zM943.9 514.2c5.3.1 10-2.5 12.9-6.9 1.1-1.6-1.5-3.1-2.6-1.5-2.3 3.5-6.1 5.5-10.3 5.4-2-.1-2 2.9 0 3zM844.2 524.8c7.6 9.2 15.1 18.3 22.7 27.5 1.2 1.5 3.3-.6 2.1-2.1-7.6-9.2-15.1-18.3-22.7-27.5-1.3-1.5-3.4.7-2.1 2.1z" fill="#161616"/><path d="M845.3 524.5c24.6.9 49.2-.5 73.5-4.4 1.9-.3 1.1-3.2-.8-2.9-24.1 3.8-48.4 5.2-72.7 4.3-1.9-.1-1.9 2.9 0 3zM944.4 515.8c9.6-3.1 19.3-7.1 29.1-9.4 6.3-1.5 9.7 1.6 14.4 5.2 4 3.1 7.9 6.4 11.7 9.8 13.5 12.4 24.9 26.8 34 42.8 1 1.7 3.5.2 2.6-1.5-10-17.6-22.9-33.4-38.1-46.7-3.4-3-7-5.8-10.6-8.5-3.2-2.4-6.5-5.3-10.7-5-5 .3-10.3 2.9-15 4.5-6.1 1.9-12.1 3.9-18.2 5.8-1.8.7-1 3.6.8 3zM859.5 555.8c3.2 8 8 14.9 14.6 20.4 1.5 1.2 3.6-.9 2.1-2.1-6.1-5.2-10.8-11.6-13.8-19.1-.7-1.8-3.6-1-2.9.8z" fill="#161616"/><path d="M862.7 557.7c2.7-1.6 5.5-3 8.4-4.1 4.4-1.6 7.3-.1 10.3 3 1.9 2 3.9 3.9 5.9 5.8.8.7 6.1 4.7 6.2 5.4.4-.5.7-1 1.1-1.4.3.1.6.2 1 .3.1.6.2 1.2.2 1.8 0-.1.1-.1.1-.2 1.1-1.6-1.5-3.1-2.6-1.5 0 .1-.1.1-.1.2-.3.5-.2 1.4.2 1.8.6.6 1.1.8 2 .5.6-.2 1.1-.8 1.1-1.4-.2-2.8-3.8-4.6-5.7-6.3-3.7-3.4-7-7.8-10.9-10.9-5.2-4.1-14 1.7-18.7 4.4-1.7.9-.2 3.5 1.5 2.6z" fill="#161616"/><path d="M875.9 576.9c5.2.3 10.9.6 16.1-.5 1.1-.2 2-.4 2.7-1.4.9-1.4.2-3 1-4.4.9-1.7-1.7-3.2-2.6-1.5-.5.8-.4 1.4-.7 2.3-.8 2.4-2.5 2.4-4.9 2.5-3.9.3-7.7.2-11.6 0-2-.1-2 2.9 0 3z" fill="#161616"/><path d="M875.9 576.1c6.5-.7 12.7-2.1 18.8-4.3 1.8-.7 1-3.6-.8-2.9-5.8 2.2-11.8 3.6-18 4.2-1.9.1-2 3.2 0 3z" fill="#161616"/><path d="M890 574.8c1.1-.7 2.4-1.1 3.7-1.2 1.9-.2 1.9-3.2 0-3-1.9.1-3.6.7-5.2 1.6-1.7 1-.2 3.6 1.5 2.6z" fill="#161616"/><path d="M890.4 575.4c7.9 10.3 16.3 20.1 25.4 29.4 1.3 1.4 3.5-.7 2.1-2.1-8.9-9.1-17.2-18.7-24.9-28.8-1.2-1.5-3.8 0-2.6 1.5z" fill="#161616"/><path d="M917.9 606.4c23-3.6 45.8-9 68-16.2 10.9-3.6 21.8-7.5 32.4-11.9 6-2.5 18.2-5.2 18-13.5 0-1.9-3-1.9-3 0 .1 5.6-10.2 8.2-14.1 9.8-4.6 1.9-9.2 3.8-13.9 5.5-9.6 3.6-19.3 6.9-29.1 9.9-19.4 5.8-39.1 10.3-59.1 13.5-1.9.3-1.1 3.2.8 2.9zM893.6 543.8c9.9 13.8 19.8 27.5 29.8 41.3 1.1 1.6 3.7.1 2.6-1.5-9.9-13.8-19.8-27.5-29.8-41.3-1.1-1.5-3.7-.1-2.6 1.5zM915.6 551.9c8.9 13.3 18.6 26 29 38.1 1.3 1.5 3.4-.7 2.1-2.1-10.3-11.9-19.8-24.4-28.6-37.5-1-1.6-3.6-.1-2.5 1.5zM937 540.5c10.8 14.2 21.7 28.4 32.5 42.6 1.2 1.5 3.8 0 2.6-1.5-10.8-14.2-21.7-28.4-32.5-42.6-1.2-1.5-3.8-.1-2.6 1.5zM959.3 529.3c5.3 6.3 10.3 12.8 15.1 19.5 1.1 1.6 3.7.1 2.6-1.5-5-6.9-10.2-13.6-15.6-20.1-1.3-1.5-3.4.6-2.1 2.1z" fill="#161616"/></g><g><path d="M971.7 244.9c-.5 2.7 0 6.3 1.1 13.2 3.1 21 5.3 35.3 14 50.8 5.9 10.4 14.7 26.1 32.5 31.5 9.3 2.8 17.6 1.8 22.7.8.5 2.8 1.4 6.2 2.9 9.8 3.5 8.2 8.7 13.6 12.2 16.7 2.4-.2 9.3-1.3 15.3-6.9 4.2-3.9 6.1-8.2 6.9-10.6-2.1-2.5-4.7-6.2-6.6-11.1-3.4-8.4-3.1-16-2.6-20.1 1.1-8.5 2.1-16.9 3.2-25.4 1.5 0 4.5-.3 7.1-2.4 4.7-3.7 5.7-11.1 2.6-16.1-1.7-2.8-5.8-6.8-10.3-5.6-3.8 1.1-5.3 5.2-5.6 5.8-.3-8.2-1.8-21-7.7-35.4-5.2-12.7-8.9-21.8-17.4-27-22.3-13.5-65.9 7.5-70.3 32z" fill="#fff"/><path d="M971.1 252.6c2.8 29.9 11.3 65.2 37 83.9 12.2 8.9 28.2 9.8 41.7 3.3 13.6-6.5 22.6-19.9 26.1-34.4.4-1.9-2.4-2.7-2.9-.8-3.3 13.7-11.7 26.4-24.7 32.6-14.9 7.1-31.4 4-43.3-7.1-21-19.7-28.4-49.9-31-77.5 0-1.9-3-1.9-2.9 0z" fill="#161616"/><path d="M1040.8 341.9c2.4 10.1 5.5 20.6 15 26.3 1.7 1 3.2-1.6 1.5-2.6-8.8-5.2-11.4-15.2-13.6-24.5-.4-1.9-3.3-1.1-2.9.8zM1068.1 320.8c1 11.2 2.4 22.8 10.3 31.4 1.3 1.4 3.4-.7 2.1-2.1-7.3-8-8.5-19-9.4-29.3-.2-1.9-3.2-1.9-3 0z" fill="#161616"/><path d="M1057.2 369.1c10.5-1.1 19.2-7.8 22.8-17.8.7-1.8-2.2-2.6-2.9-.8-3.1 8.6-10.9 14.6-19.9 15.6-1.9.2-1.9 3.2 0 3zM1069 276.4c.1-4.7 4.9-7.1 8.9-5 2.5 1.3 3.9 3.7 4.4 6.3.9 4.3-1.9 16.3-8.8 13.4-1.8-.7-3.3 1.8-1.5 2.6 10.4 4.5 15.9-11.9 12.4-19.4-4-8.7-18.2-9-18.5 2.1.1 2 3.1 2 3.1 0zM1000.8 261.5c-2 9.2-3.5 18.6-4 28.1-.1 2.5-.4 4.2 1.5 6 2.7 2.5 7.5 3.6 11 4.3 1.9.4 2.7-2.5.8-2.9-2.8-.5-7.5-1.2-9.5-3.4-2.1-2.3-.6-7.7-.3-10.5.7-7 1.9-13.9 3.4-20.8.4-1.9-2.5-2.7-2.9-.8zM978.1 266.8c4.9 2.8 10.7 2.6 15.4-.4 1.6-1 .1-3.6-1.5-2.6-3.8 2.5-8.4 2.6-12.4.4-1.7-.9-3.2 1.7-1.5 2.6zM1012.4 252.4c4.6-6.5 13.7-5.1 16.8 2 .8 1.8 3.4.2 2.6-1.5-4.2-9.3-16.2-10.1-22-2-1.1 1.6 1.5 3.1 2.6 1.5z" fill="#161616"/><path d="M983.5 267.4c-1 4.7.2 9.3 3.4 12.9 1.3 1.4 3.4-.7 2.1-2.1-2.4-2.8-3.4-6.4-2.6-10 .4-1.9-2.5-2.7-2.9-.8z" fill="#161616"/><path d="M986 268.2c1 3.5 1.5 7 1.5 10.6 0 1.9 3 1.9 3 0 0-3.9-.6-7.6-1.6-11.4-.6-1.8-3.5-1-2.9.8z" fill="#161616"/><path d="M985.1 268.5c-.7 3.3-.2 6.5 1.5 9.4 1 1.6 3.6.1 2.6-1.5-1.3-2.2-1.8-4.6-1.2-7.1.4-1.9-2.5-2.7-2.9-.8z" fill="#161616"/><path d="M989.5 280.9c1.1-1.1 1.5-2.6 1.2-4.1-.1-.8-1.1-1.2-1.8-1-.8.2-1.2 1-1 1.8v.4c0-.2-.1.2-.1.2-.1.3.1-.1-.1.2-.1.1-.1.2 0 .1-.1.1-.1.2-.2.2-.6.6-.6 1.6 0 2.1.5.7 1.4.7 2 .1zM1017.3 261c-1.6 4.3-1.6 8.9 0 13.2.7 1.8 3.6 1 2.9-.8-1.5-3.8-1.5-7.7 0-11.6.7-1.8-2.2-2.6-2.9-.8z" fill="#161616"/><path d="M1017.6 262.1c.8 4 1.1 7.9.8 12-.1 1.9 2.9 1.9 3 0 .3-4.3 0-8.6-.9-12.8-.4-1.9-3.3-1.1-2.9.8zM999.1 307.9c6.4-.5 10.8 4.1 14.7 8.5 1.3 1.4 3.4-.7 2.1-2.1-4.5-4.9-9.7-9.9-16.8-9.4-1.9.1-1.9 3.1 0 3z" fill="#161616"/><path d="M1018.1 261.6c.8 2.4 1.2 4.8 1.3 7.3 0 1 0 2-.1 2.9-.7 1.7-.4 2 .9 1 .1-.5.1-.9 0-1.4-.2-1.9-3.2-1.9-3 0 .1 1.5-.3 3.2 1.1 4.2 1.1.8 2.5.6 3.2-.6 1-1.5.9-4.5.9-6.2 0-2.8-.5-5.5-1.4-8.1-.6-1.7-3.5-.9-2.9.9zM1043.5 344.2c9.7-1.4 16.4-7.5 21.5-15.5 1-1.6-1.6-3.1-2.6-1.5-4.7 7.5-10.7 12.8-19.7 14.1-1.9.3-1.1 3.2.8 2.9z" fill="#161616"/><path d="M1043.7 346.4c11.2-1 20.8-13.3 25.5-22.5.9-1.7-1.7-3.2-2.6-1.5-4.1 8.1-13 20.1-22.9 21-1.9.1-1.9 3.1 0 3z" fill="#161616"/><path d="M1043.5 347.9c6.7.2 11.7-5.5 16.1-9.9 4.4-4.4 9.4-9.3 10.1-15.8.2-1.9-2.8-1.9-3 0-.5 5.5-5.5 10-9.2 13.7-3.7 3.8-8.3 9.1-14 9-2 0-2 3 0 3z" fill="#161616"/><path d="M972.7 257.2c-3-3.9-9-12.7-8.8-24.3.4-22.3 23.4-35.3 26.6-37.1 10.5-5.9 17.1-5.2 41.5-9.4 17.2-3 30.9-6.3 39.5-8.5l-11.4 12.9c5 1.5 10.2 3.2 15.5 5.3 14.5 5.5 27.1 12 37.7 18.4-5.1 1.9-10.1 3.9-15.2 5.8 3.5 1.3 17.4 7 22.8 21 3.5 9.3 1.7 18 .9 21.6-3.9 17.7-16.7 21.9-15.8 33.9.3 3.6 1.9 8.9 8.8 15.2l-12.3-1.2c1.1 3.5 2.1 7 3.2 10.5-2.9.9-8.1 2.1-14.3 1.2-2.6-.4-16.2-2.5-20.7-13.7-2.9-7.3-.4-14.3.6-16.7 2.3 1 5.5 1.9 8.2.6 6.8-3.3 7.5-19 .9-23.4-2.3-1.5-5.9-1.9-9.1-.6-3.4 1.5-4.9 4.4-5.3 5.3-2.9-.9-7-2.7-10.5-6.4-10.2-10.7-5.6-27-5.3-28.1-4.1-.2-10.5-.9-17.8-3.5-9.2-3.3-12.2-6.8-19.3-8.2-4.4-.8-11.2-1-20.5 3.2-2.9 1.4-7.1 3.8-11.1 8.2-6.3 7-8.1 14.5-8.8 18z" fill="#5222d0"/><path d="M1037 236.3c5.9 11.8 9.1 22 10.9 29.2 3.1 12.5 8.1 34.5.4 59.2-2.1 6.8-4.7 12-6.5 15.2 5.1-2.5 10.2-4.9 15.2-7.4 4.1 10.4 8.1 20.9 12.2 31.3 3.3-3.9 6.7-7.8 10-11.8-2.6-3.4-7.3-10.8-8.7-21.3-1-7.7.2-14 1.3-17.8 2.2 1.3 4.4 2.6 6.5 3.9 2.4 1.5 6.1 3.3 10.9 4.4 6.6 1.4 12.1.7 15.2 0-.9-3.6-1.7-7.3-2.6-10.9 4.2.6 8.4 1.2 12.6 1.7-1.7-1.1-4.9-3.6-7-7.8-3.4-6.9-1.4-13.5-.9-15.2 2-6.5 5.8-7.4 10-13.5 1.4-2.1 6.9-11.1 6.1-23.1-.7-10.5-5.8-17.6-7-19.2-7-9.4-16.6-12.3-19.6-13.1 5.4-2 10.7-4.1 16.1-6.1-3-1.7-21.6-11.7-44-4.4-20.1 6.8-29.2 23.2-31.1 26.7z" opacity=".13" fill="#606060"/><path d="M997 294.6c-1.2 1.2-1.9 3.2-1.3 4.8 1.3 3.6 8.8 5.2 13.1 2.2.5-.4 2.9-2.1 2.6-3.9-.6-3.6-10.6-7-14.4-3.1z" opacity=".18" fill="#606060"/></g></g></svg>