<svg width="181" height="19" viewBox="0 0 181 19" fill="none" xmlns="http://www.w3.org/2000/svg">
<path d="M12.968 2.184C13.352 2.392 13.544 2.712 13.544 3.144C13.544 3.432 13.448 3.696 13.256 3.936C13.064 4.192 12.8 4.32 12.464 4.32C12.24 4.32 12.024 4.264 11.816 4.152C10.824 3.592 9.752 3.312 8.6 3.312C7.4 3.312 6.336 3.576 5.408 4.104C4.496 4.632 3.784 5.376 3.272 6.336C2.76 7.28 2.504 8.368 2.504 9.6C2.504 10.928 2.768 12.072 3.296 13.032C3.824 13.992 4.552 14.728 5.48 15.24C6.408 15.736 7.448 15.984 8.6 15.984C9.784 15.984 10.856 15.696 11.816 15.12C12.008 15.024 12.216 14.976 12.44 14.976C12.792 14.976 13.072 15.112 13.28 15.384C13.472 15.624 13.568 15.88 13.568 16.152C13.568 16.344 13.512 16.528 13.4 16.704C13.304 16.864 13.168 16.992 12.992 17.088C12.368 17.44 11.664 17.72 10.88 17.928C10.112 18.136 9.352 18.24 8.6 18.24C7.048 18.24 5.616 17.896 4.304 17.208C3.008 16.52 1.968 15.52 1.184 14.208C0.416 12.896 0.032 11.36 0.032 9.6C0.032 7.984 0.4 6.528 1.136 5.232C1.888 3.92 2.912 2.896 4.208 2.16C5.52 1.408 6.984 1.032 8.6 1.032C10.152 1.032 11.608 1.416 12.968 2.184ZM27.9127 11.712C27.9127 12.96 27.6327 14.08 27.0727 15.072C26.5127 16.064 25.7447 16.84 24.7687 17.4C23.8087 17.96 22.7447 18.24 21.5767 18.24C20.4087 18.24 19.3367 17.96 18.3607 17.4C17.4007 16.84 16.6407 16.064 16.0807 15.072C15.5207 14.08 15.2407 12.96 15.2407 11.712C15.2407 10.464 15.5207 9.336 16.0807 8.328C16.6407 7.32 17.4007 6.536 18.3607 5.976C19.3367 5.416 20.4087 5.136 21.5767 5.136C22.7447 5.136 23.8087 5.416 24.7687 5.976C25.7447 6.536 26.5127 7.32 27.0727 8.328C27.6327 9.336 27.9127 10.464 27.9127 11.712ZM25.6327 11.712C25.6327 10.848 25.4487 10.08 25.0807 9.408C24.7287 8.72 24.2407 8.192 23.6167 7.824C23.0087 7.44 22.3287 7.248 21.5767 7.248C20.8247 7.248 20.1367 7.44 19.5127 7.824C18.9047 8.192 18.4167 8.72 18.0487 9.408C17.6967 10.08 17.5207 10.848 17.5207 11.712C17.5207 12.56 17.6967 13.32 18.0487 13.992C18.4167 14.664 18.9047 15.192 19.5127 15.576C20.1367 15.944 20.8247 16.128 21.5767 16.128C22.3287 16.128 23.0087 15.944 23.6167 15.576C24.2407 15.192 24.7287 14.664 25.0807 13.992C25.4487 13.32 25.6327 12.56 25.6327 11.712ZM36.8274 5.136C37.2434 5.136 37.6034 5.248 37.9074 5.472C38.2114 5.68 38.3634 5.944 38.3634 6.264C38.3634 6.648 38.2594 6.944 38.0514 7.152C37.8594 7.344 37.6194 7.44 37.3314 7.44C37.1874 7.44 36.9714 7.392 36.6834 7.296C36.3474 7.184 36.0834 7.128 35.8914 7.128C35.3954 7.128 34.9074 7.304 34.4274 7.656C33.9634 7.992 33.5794 8.464 33.2754 9.072C32.9874 9.664 32.8434 10.328 32.8434 11.064V16.848C32.8434 17.168 32.7314 17.44 32.5074 17.664C32.2994 17.888 32.0274 18 31.6914 18C31.3554 18 31.0834 17.896 30.8754 17.688C30.6674 17.464 30.5634 17.184 30.5634 16.848V6.576C30.5634 6.256 30.6674 5.984 30.8754 5.76C31.0994 5.536 31.3714 5.424 31.6914 5.424C32.0274 5.424 32.2994 5.536 32.5074 5.76C32.7314 5.984 32.8434 6.256 32.8434 6.576V7.8C33.1954 7.016 33.7234 6.384 34.4274 5.904C35.1314 5.408 35.9314 5.152 36.8274 5.136ZM51.8424 11.712C51.8424 12.96 51.5624 14.08 51.0024 15.072C50.4424 16.064 49.6744 16.84 48.6984 17.4C47.7384 17.96 46.6744 18.24 45.5064 18.24C44.3384 18.24 43.2664 17.96 42.2904 17.4C41.3304 16.84 40.5704 16.064 40.0104 15.072C39.4504 14.08 39.1704 12.96 39.1704 11.712C39.1704 10.464 39.4504 9.336 40.0104 8.328C40.5704 7.32 41.3304 6.536 42.2904 5.976C43.2664 5.416 44.3384 5.136 45.5064 5.136C46.6744 5.136 47.7384 5.416 48.6984 5.976C49.6744 6.536 50.4424 7.32 51.0024 8.328C51.5624 9.336 51.8424 10.464 51.8424 11.712ZM49.5624 11.712C49.5624 10.848 49.3784 10.08 49.0104 9.408C48.6584 8.72 48.1704 8.192 47.5464 7.824C46.9384 7.44 46.2584 7.248 45.5064 7.248C44.7544 7.248 44.0664 7.44 43.4424 7.824C42.8344 8.192 42.3464 8.72 41.9784 9.408C41.6264 10.08 41.4504 10.848 41.4504 11.712C41.4504 12.56 41.6264 13.32 41.9784 13.992C42.3464 14.664 42.8344 15.192 43.4424 15.576C44.0664 15.944 44.7544 16.128 45.5064 16.128C46.2584 16.128 46.9384 15.944 47.5464 15.576C48.1704 15.192 48.6584 14.664 49.0104 13.992C49.3784 13.32 49.5624 12.56 49.5624 11.712ZM60.9011 5.136C63.7811 5.136 65.2211 6.864 65.2211 10.32V16.848C65.2211 17.168 65.1091 17.44 64.8851 17.664C64.6771 17.888 64.4051 18 64.0691 18C63.7491 18 63.4771 17.888 63.2531 17.664C63.0451 17.44 62.9411 17.168 62.9411 16.848V10.344C62.9411 9.4 62.7251 8.648 62.2931 8.088C61.8611 7.528 61.1571 7.248 60.1811 7.248C59.5411 7.248 58.9571 7.392 58.4291 7.68C57.9171 7.952 57.5091 8.328 57.2051 8.808C56.9171 9.272 56.7731 9.784 56.7731 10.344V16.848C56.7731 17.168 56.6611 17.44 56.4371 17.664C56.2291 17.888 55.9571 18 55.6211 18C55.2851 18 55.0131 17.896 54.8051 17.688C54.5971 17.464 54.4931 17.184 54.4931 16.848V6.576C54.4931 6.256 54.5971 5.984 54.8051 5.76C55.0291 5.536 55.3011 5.424 55.6211 5.424C55.9571 5.424 56.2291 5.536 56.4371 5.76C56.6611 5.984 56.7731 6.256 56.7731 6.576V7.416C57.1891 6.776 57.7651 6.24 58.5011 5.808C59.2531 5.36 60.0531 5.136 60.9011 5.136ZM78.8259 5.256C79.1619 5.256 79.4339 5.368 79.6419 5.592C79.8659 5.8 79.9779 6.08 79.9779 6.432V16.848C79.9779 17.168 79.8659 17.44 79.6419 17.664C79.4339 17.888 79.1619 18 78.8259 18C78.4899 18 78.2179 17.896 78.0099 17.688C77.8019 17.464 77.6979 17.184 77.6979 16.848V16.224C77.2819 16.784 76.7139 17.264 75.9939 17.664C75.2739 18.048 74.4979 18.24 73.6659 18.24C72.5779 18.24 71.5859 17.96 70.6899 17.4C69.8099 16.84 69.1139 16.064 68.6019 15.072C68.1059 14.064 67.8579 12.936 67.8579 11.688C67.8579 10.44 68.1059 9.32 68.6019 8.328C69.1139 7.32 69.8099 6.536 70.6899 5.976C71.5699 5.416 72.5379 5.136 73.5939 5.136C74.4419 5.136 75.2259 5.312 75.9459 5.664C76.6819 6.016 77.2659 6.464 77.6979 7.008V6.432C77.6979 6.096 77.8019 5.816 78.0099 5.592C78.2179 5.368 78.4899 5.256 78.8259 5.256ZM73.9299 16.128C74.6819 16.128 75.3459 15.936 75.9219 15.552C76.5139 15.168 76.9699 14.64 77.2899 13.968C77.6259 13.296 77.7939 12.536 77.7939 11.688C77.7939 10.856 77.6259 10.104 77.2899 9.432C76.9699 8.76 76.5139 8.232 75.9219 7.848C75.3459 7.448 74.6819 7.248 73.9299 7.248C73.1779 7.248 72.5059 7.44 71.9139 7.824C71.3379 8.208 70.8819 8.736 70.5459 9.408C70.2259 10.08 70.0659 10.84 70.0659 11.688C70.0659 12.536 70.2259 13.296 70.5459 13.968C70.8819 14.64 71.3379 15.168 71.9139 15.552C72.5059 15.936 73.1779 16.128 73.9299 16.128ZM95.1924 1.176C95.5124 1.176 95.7844 1.28 96.0084 1.488C96.2484 1.696 96.3684 1.952 96.3684 2.256C96.3684 2.416 96.3284 2.592 96.2484 2.784L90.1284 17.256C90.0164 17.496 89.8564 17.68 89.6484 17.808C89.4404 17.936 89.2244 18 89.0004 18C88.7924 17.984 88.5924 17.92 88.4004 17.808C88.2244 17.68 88.0804 17.504 87.9684 17.28L81.8484 2.784C81.7844 2.656 81.7524 2.488 81.7524 2.28C81.7524 1.944 81.8724 1.672 82.1124 1.464C82.3524 1.256 82.6164 1.152 82.9044 1.152C83.3844 1.152 83.7364 1.408 83.9604 1.92L89.1924 14.28L94.1364 1.896C94.2484 1.672 94.3924 1.496 94.5684 1.368C94.7604 1.24 94.9684 1.176 95.1924 1.176ZM100.973 16.848C100.973 17.168 100.861 17.44 100.637 17.664C100.429 17.888 100.157 18 99.8214 18C99.5014 18 99.2294 17.888 99.0054 17.664C98.7974 17.44 98.6934 17.168 98.6934 16.848V6.456C98.6934 6.136 98.7974 5.864 99.0054 5.64C99.2294 5.416 99.5014 5.304 99.8214 5.304C100.157 5.304 100.429 5.416 100.637 5.64C100.861 5.864 100.973 6.136 100.973 6.456V16.848ZM99.8214 3.72C99.3574 3.72 99.0214 3.64 98.8134 3.48C98.6214 3.304 98.5254 3.032 98.5254 2.664V2.28C98.5254 1.896 98.6294 1.624 98.8374 1.464C99.0614 1.304 99.3974 1.224 99.8454 1.224C100.293 1.224 100.613 1.312 100.805 1.488C101.013 1.648 101.117 1.912 101.117 2.28V2.664C101.117 3.048 101.013 3.32 100.805 3.48C100.597 3.64 100.269 3.72 99.8214 3.72ZM110.515 5.136C110.931 5.136 111.291 5.248 111.595 5.472C111.899 5.68 112.051 5.944 112.051 6.264C112.051 6.648 111.947 6.944 111.739 7.152C111.547 7.344 111.307 7.44 111.019 7.44C110.875 7.44 110.659 7.392 110.371 7.296C110.035 7.184 109.771 7.128 109.579 7.128C109.083 7.128 108.595 7.304 108.115 7.656C107.651 7.992 107.267 8.464 106.963 9.072C106.675 9.664 106.531 10.328 106.531 11.064V16.848C106.531 17.168 106.419 17.44 106.195 17.664C105.987 17.888 105.715 18 105.379 18C105.043 18 104.771 17.896 104.563 17.688C104.355 17.464 104.251 17.184 104.251 16.848V6.576C104.251 6.256 104.355 5.984 104.563 5.76C104.787 5.536 105.059 5.424 105.379 5.424C105.715 5.424 105.987 5.536 106.195 5.76C106.419 5.984 106.531 6.256 106.531 6.576V7.8C106.883 7.016 107.411 6.384 108.115 5.904C108.819 5.408 109.619 5.152 110.515 5.136ZM123.525 5.424C123.861 5.424 124.133 5.536 124.341 5.76C124.565 5.984 124.677 6.256 124.677 6.576V12.96C124.677 14.624 124.213 15.92 123.285 16.848C122.373 17.76 121.077 18.216 119.397 18.216C117.733 18.216 116.445 17.76 115.533 16.848C114.621 15.92 114.165 14.624 114.165 12.96V6.576C114.165 6.256 114.269 5.984 114.477 5.76C114.701 5.536 114.973 5.424 115.293 5.424C115.629 5.424 115.901 5.536 116.109 5.76C116.333 5.984 116.445 6.256 116.445 6.576V12.96C116.445 15.056 117.429 16.104 119.397 16.104C120.373 16.104 121.117 15.84 121.629 15.312C122.141 14.784 122.397 14 122.397 12.96V6.576C122.397 6.256 122.501 5.984 122.709 5.76C122.933 5.536 123.205 5.424 123.525 5.424ZM127.367 16.032C127.223 15.808 127.151 15.592 127.151 15.384C127.151 15.064 127.319 14.792 127.655 14.568C127.815 14.456 127.999 14.4 128.207 14.4C128.495 14.4 128.759 14.52 128.999 14.76C129.479 15.304 129.991 15.712 130.535 15.984C131.095 16.256 131.759 16.392 132.527 16.392C133.135 16.376 133.671 16.24 134.135 15.984C134.599 15.712 134.831 15.28 134.831 14.688C134.831 14.144 134.591 13.728 134.111 13.44C133.647 13.152 132.959 12.888 132.047 12.648C131.151 12.408 130.407 12.16 129.815 11.904C129.223 11.632 128.719 11.248 128.303 10.752C127.903 10.24 127.703 9.576 127.703 8.76C127.703 8.04 127.903 7.408 128.303 6.864C128.719 6.32 129.263 5.896 129.935 5.592C130.623 5.288 131.367 5.136 132.167 5.136C132.935 5.136 133.695 5.28 134.447 5.568C135.215 5.856 135.839 6.296 136.319 6.888C136.511 7.112 136.607 7.344 136.607 7.584C136.607 7.84 136.479 8.088 136.223 8.328C136.063 8.472 135.863 8.544 135.623 8.544C135.335 8.544 135.103 8.448 134.927 8.256C134.591 7.872 134.175 7.576 133.679 7.368C133.199 7.16 132.663 7.056 132.071 7.056C131.463 7.056 130.943 7.184 130.511 7.44C130.095 7.68 129.887 8.096 129.887 8.688C129.903 9.248 130.143 9.664 130.607 9.936C131.087 10.208 131.815 10.472 132.791 10.728C133.639 10.952 134.343 11.192 134.903 11.448C135.463 11.704 135.935 12.088 136.319 12.6C136.703 13.096 136.895 13.752 136.895 14.568C136.895 15.32 136.679 15.976 136.247 16.536C135.815 17.08 135.247 17.504 134.543 17.808C133.855 18.096 133.119 18.24 132.335 18.24C131.327 18.24 130.391 18.064 129.527 17.712C128.679 17.36 127.959 16.8 127.367 16.032ZM140.34 17.976C139.956 17.976 139.66 17.872 139.452 17.664C139.26 17.456 139.164 17.152 139.164 16.752V16.296C139.164 15.912 139.26 15.616 139.452 15.408C139.66 15.2 139.956 15.096 140.34 15.096H140.58C140.98 15.096 141.276 15.2 141.468 15.408C141.676 15.616 141.78 15.912 141.78 16.296V16.752C141.78 17.568 141.38 17.976 140.58 17.976H140.34ZM147.293 16.848C147.293 17.168 147.181 17.44 146.957 17.664C146.733 17.888 146.461 18 146.141 18C145.821 18 145.549 17.888 145.325 17.664C145.117 17.44 145.013 17.168 145.013 16.848V1.392C145.013 1.072 145.125 0.8 145.349 0.576C145.573 0.352 145.845 0.24 146.165 0.24C146.485 0.24 146.749 0.352 146.957 0.576C147.181 0.8 147.293 1.072 147.293 1.392V16.848ZM153.052 16.848C153.052 17.168 152.94 17.44 152.715 17.664C152.508 17.888 152.236 18 151.9 18C151.58 18 151.308 17.888 151.084 17.664C150.876 17.44 150.771 17.168 150.771 16.848V6.456C150.771 6.136 150.876 5.864 151.084 5.64C151.308 5.416 151.58 5.304 151.9 5.304C152.236 5.304 152.508 5.416 152.715 5.64C152.94 5.864 153.052 6.136 153.052 6.456V16.848ZM151.9 3.72C151.436 3.72 151.1 3.64 150.892 3.48C150.7 3.304 150.604 3.032 150.604 2.664V2.28C150.604 1.896 150.708 1.624 150.916 1.464C151.14 1.304 151.476 1.224 151.924 1.224C152.372 1.224 152.692 1.312 152.884 1.488C153.092 1.648 153.196 1.912 153.196 2.28V2.664C153.196 3.048 153.092 3.32 152.884 3.48C152.676 3.64 152.348 3.72 151.9 3.72ZM165.929 5.304C166.233 5.304 166.489 5.408 166.697 5.616C166.905 5.808 167.009 6.04 167.009 6.312C167.009 6.456 166.953 6.656 166.841 6.912L162.281 17.28C162.185 17.488 162.049 17.656 161.873 17.784C161.697 17.912 161.505 17.984 161.297 18C161.041 18.032 160.801 17.984 160.577 17.856C160.369 17.728 160.209 17.536 160.097 17.28L155.537 6.912C155.457 6.672 155.417 6.472 155.417 6.312C155.417 6.056 155.521 5.824 155.729 5.616C155.937 5.408 156.209 5.304 156.545 5.304C156.785 5.304 157.001 5.368 157.193 5.496C157.385 5.608 157.537 5.784 157.649 6.024L161.273 14.448L164.897 6.024C165.121 5.544 165.465 5.304 165.929 5.304ZM180.4 11.232C180.384 11.52 180.264 11.768 180.04 11.976C179.816 12.168 179.552 12.264 179.248 12.264H170.8C170.912 13.432 171.352 14.368 172.12 15.072C172.904 15.776 173.856 16.128 174.976 16.128C175.744 16.128 176.368 16.016 176.848 15.792C177.328 15.568 177.752 15.28 178.12 14.928C178.36 14.784 178.592 14.712 178.816 14.712C179.088 14.712 179.312 14.808 179.488 15C179.68 15.192 179.776 15.416 179.776 15.672C179.776 16.008 179.616 16.312 179.296 16.584C178.832 17.048 178.216 17.44 177.448 17.76C176.68 18.08 175.896 18.24 175.096 18.24C173.8 18.24 172.656 17.968 171.664 17.424C170.688 16.88 169.928 16.12 169.384 15.144C168.856 14.168 168.592 13.064 168.592 11.832C168.592 10.488 168.864 9.312 169.408 8.304C169.968 7.28 170.696 6.496 171.592 5.952C172.504 5.408 173.48 5.136 174.52 5.136C175.544 5.136 176.504 5.4 177.4 5.928C178.296 6.456 179.016 7.184 179.56 8.112C180.104 9.04 180.384 10.08 180.4 11.232ZM174.52 7.248C173.624 7.248 172.848 7.504 172.192 8.016C171.536 8.512 171.104 9.288 170.896 10.344H177.976V10.152C177.896 9.304 177.512 8.608 176.824 8.064C176.152 7.52 175.384 7.248 174.52 7.248Z" fill="white"/>
</svg>
